<svg width="210" height="25" viewBox="0 0 210 25" fill="none" xmlns="http://www.w3.org/2000/svg">
    <path d="M9.81592 24.48C7.76792 24.48 5.87992 23.744 4.40792 22.496V24H0.471924V0.640015H4.69592V8.96001C6.10392 7.84002 7.89592 7.20001 9.81592 7.20001C14.5199 7.20001 18.2959 11.04 18.2959 15.84C18.2959 20.64 14.5199 24.48 9.81592 24.48ZM9.27192 20.576C11.7999 20.576 13.8479 18.496 13.8479 15.84C13.8479 13.152 11.7999 11.104 9.27192 11.104C6.74392 11.104 4.69592 13.152 4.69592 15.84C4.69592 18.496 6.74392 20.576 9.27192 20.576Z"
          fill="#F6F7F8"/>
    <path d="M37.8442 7.68001V24H33.8442V22.56C32.4042 23.776 30.5482 24.48 28.5322 24.48C23.8282 24.48 20.0522 20.64 20.0522 15.84C20.0522 11.04 23.8282 7.20001 28.5322 7.20001C30.5482 7.20001 32.4042 7.90401 33.8442 9.12001V7.68001H37.8442ZM24.5002 15.84C24.5002 18.528 26.5162 20.576 29.0762 20.576C31.6042 20.576 33.6202 18.528 33.6202 15.84C33.6202 13.152 31.6042 11.104 29.0762 11.104C26.5162 11.104 24.5002 13.152 24.5002 15.84Z"
          fill="#F6F7F8"/>
    <path d="M40.0164 11.36V7.68001H42.9604V3.04001H47.1844V7.68001H50.8324V11.36H47.1844V24H42.9604V11.36H40.0164Z"
          fill="#F6F7F8"/>
    <path d="M63.4039 7.68001H67.6279L67.5959 17.568C67.5639 21.664 64.5239 24.48 60.1399 24.48C55.8199 24.48 52.9719 21.728 52.9719 17.568V7.68001H57.1959V16.864C57.1959 19.104 58.4119 20.576 60.2359 20.576C62.1559 20.576 63.4039 19.072 63.4039 16.896V7.68001Z"
          fill="#F6F7F8"/>
    <path d="M70.5344 24V0.640015H74.7584V8.54401C75.7504 7.64801 77.2224 7.13601 78.8864 7.13601C82.6944 7.13601 85.3824 9.82401 85.3824 13.696V24H81.1584V14.4C81.1584 12.48 79.8464 11.04 78.0224 11.04C76.1984 11.04 74.7584 12.48 74.7584 14.272V24H70.5344Z"
          fill="#F6F7F8"/>
    <path d="M105.5 7.68001V24H101.5V22.56C100.06 23.776 98.2044 24.48 96.1884 24.48C91.4844 24.48 87.7084 20.64 87.7084 15.84C87.7084 11.04 91.4844 7.20001 96.1884 7.20001C98.2044 7.20001 100.06 7.90401 101.5 9.12001V7.68001H105.5ZM92.1564 15.84C92.1564 18.528 94.1724 20.576 96.7324 20.576C99.2604 20.576 101.276 18.528 101.276 15.84C101.276 13.152 99.2604 11.104 96.7324 11.104C94.1724 11.104 92.1564 13.152 92.1564 15.84Z"
          fill="#F6F7F8"/>
    <path d="M108.441 24V7.68001H112.377V8.83201C113.369 7.74401 114.937 7.13601 116.793 7.13601C120.601 7.13601 123.257 9.82401 123.257 13.696V24H119.033V14.4C119.033 12.48 117.753 11.04 115.929 11.04C114.105 11.04 112.665 12.48 112.665 14.272V24H108.441Z"
          fill="#F6F7F8"/>
    <path d="M134.034 24V0.640015H138.258V13.76L143.602 7.68001H149.01L142.418 15.04L149.298 24H143.954L138.258 16.384V24H134.034Z"
          fill="#F6F7F8"/>
    <path d="M149.208 15.84C149.208 11.04 153.208 7.20001 158.232 7.20001C163.288 7.20001 167.288 11.008 167.288 15.84C167.288 20.64 163.288 24.48 158.232 24.48C153.208 24.48 149.208 20.64 149.208 15.84ZM153.656 15.84C153.656 18.496 155.672 20.576 158.232 20.576C160.824 20.576 162.808 18.496 162.808 15.84C162.808 13.184 160.824 11.104 158.232 11.104C155.672 11.104 153.656 13.184 153.656 15.84Z"
          fill="#F6F7F8"/>
    <path d="M169.659 24V7.68001H173.595V9.05602C174.523 7.84002 175.931 7.13601 177.499 7.13601C178.203 7.13601 178.939 7.29601 179.675 7.58401L177.915 11.616C177.403 11.392 177.083 11.296 176.603 11.296C174.811 11.296 173.883 12.608 173.883 15.136V24H169.659Z"
          fill="#F6F7F8"/>
    <path d="M191.904 7.68001H196.128L196.096 17.568C196.064 21.664 193.024 24.48 188.64 24.48C184.32 24.48 181.472 21.728 181.472 17.568V7.68001H185.696V16.864C185.696 19.104 186.912 20.576 188.736 20.576C190.656 20.576 191.904 19.072 191.904 16.896V7.68001Z"
          fill="#F6F7F8"/>
    <path d="M199.034 24V7.68001H202.97V9.05602C203.898 7.84002 205.306 7.13601 206.874 7.13601C207.578 7.13601 208.314 7.29601 209.05 7.58401L207.29 11.616C206.778 11.392 206.458 11.296 205.978 11.296C204.186 11.296 203.258 12.608 203.258 15.136V24H199.034Z"
          fill="#F6F7F8"/>
</svg>
