<svg width="480" height="480" viewBox="0 0 480 480" fill="none" xmlns="http://www.w3.org/2000/svg">
    <rect width="480" height="480" fill="#0C0E10"/>
    <rect x="20.5" y="20.5" width="439" height="439" rx="41.5" fill="#13151A" stroke="#2E2F36"/>
    <path d="M246.544 420C215.521 420 186.921 408.886 164.623 390.04V412.752H105V60H168.986V185.638C190.314 168.725 217.46 159.06 246.544 159.06C317.801 159.06 375 217.047 375 289.53C375 362.013 317.801 420 246.544 420ZM238.303 361.047C276.598 361.047 307.621 329.638 307.621 289.53C307.621 248.94 276.598 218.013 238.303 218.013C200.009 218.013 168.986 248.94 168.986 289.53C168.986 329.638 200.009 361.047 238.303 361.047Z"
          fill="#F7F8F8"/>
</svg>
