<svg width="600" height="400" viewBox="0 0 600 400" fill="none" xmlns="http://www.w3.org/2000/svg">
    <rect width="600" height="400"/>
    <g clip-path="url(#clip0_1_2)">
        <path d="M416.771 270.553C410.474 271.179 403.989 270.341 397.974 268.103C394.867 267.038 391.324 265.176 390.456 263.181C388.177 256.489 391.043 248.747 386.794 242.518C383.972 238.93 381.001 235.914 379.096 231.731C377.51 228.655 375.482 226.171 374.494 222.823C368.888 205.631 371.95 185.338 378.881 171.545C380.93 168.148 385.457 169.759 388.396 170.868C390.429 171.94 391.128 171.694 390.368 173.806C384.487 188.332 377.657 207.605 386.956 220.229C389.595 224.776 394.991 228.712 399.5 227.613C405.064 226.544 403.563 222.76 405.33 223.459C408.431 224.149 411.255 224.167 414.307 224.737C414.549 228.224 415.108 230.499 418.542 231.021C440.793 231.901 439.014 189.463 432.479 176.753C430.382 171.783 434.326 171.228 437.953 171.087C444.955 169.959 446.908 192.77 447.343 195.453C447.738 200.134 447.229 204.568 447.024 209.286C446.206 223.608 439.909 230.791 433.464 240.132C427.277 247.909 426.382 247.69 425.964 255.57C425.678 269.381 428.535 268.451 416.789 270.68C416.783 270.638 416.777 270.596 416.771 270.553Z"
              fill="white"/>
        <path d="M416.369 271.268L416.344 271.095C410.114 271.641 403.712 270.771 397.8 268.571C394.657 267.494 390.948 265.561 389.999 263.38L389.984 263.342C389.002 260.459 388.95 257.378 388.9 254.399C388.83 250.235 388.763 246.301 386.392 242.813C385.737 241.982 385.066 241.171 384.417 240.386C382.214 237.723 380.132 235.207 378.646 231.949C378.119 230.927 377.531 229.954 376.963 229.013C375.844 227.158 374.687 225.241 374.015 222.964C371.365 214.838 370.49 205.46 371.49 195.858C372.397 187.143 374.864 178.429 378.435 171.321L378.454 171.287C380.765 167.456 385.843 169.372 388.572 170.401L388.628 170.427C388.999 170.622 389.322 170.772 389.608 170.904C391.091 171.59 391.546 172.006 390.837 173.976C383.956 190.972 378.778 208.287 387.357 219.934L387.387 219.979C389.905 224.317 395.08 228.178 399.381 227.129L399.405 227.124C402.542 226.521 403.23 225.038 403.685 224.056C403.977 223.428 404.375 222.569 405.474 222.98C407.137 223.347 408.758 223.524 410.325 223.694C411.642 223.838 413.003 223.986 414.398 224.247L414.777 224.317L414.804 224.703C415.058 228.357 415.666 230.069 418.59 230.523C423.875 230.725 428.098 228.407 431.138 223.636C434.654 218.121 436.487 209.428 436.301 199.159C436.142 190.418 434.468 181.713 432.035 176.981L432.019 176.947C431.239 175.098 431.187 173.684 431.86 172.624C432.887 171.009 435.369 170.69 437.904 170.59C438.895 170.438 439.844 170.696 440.722 171.356C445.283 174.782 446.995 188.654 447.64 193.876C447.724 194.556 447.79 195.093 447.835 195.373L447.84 195.411C448.135 198.916 447.934 202.211 447.721 205.699C447.649 206.875 447.575 208.09 447.522 209.308C446.79 222.122 441.834 229.132 436.094 237.249C435.369 238.276 434.618 239.337 433.874 240.415L433.854 240.443C432.918 241.619 432.107 242.608 431.393 243.479C427.419 248.325 426.808 249.07 426.462 255.596C426.407 258.278 426.471 260.407 426.523 262.118C426.737 269.173 426.574 269.339 417.822 270.992L416.369 271.268ZM390.922 263C391.757 264.879 395.326 266.668 398.136 267.631C404.069 269.839 410.491 270.676 416.722 270.057L417.198 270.009L417.21 270.093L417.637 270.012C421.781 269.229 423.86 268.836 424.788 267.9C425.674 267.007 425.625 265.383 425.527 262.149C425.474 260.426 425.409 258.283 425.466 255.56C425.83 248.69 426.562 247.798 430.622 242.846C431.332 241.981 432.136 241 433.064 239.834C433.808 238.756 434.556 237.697 435.281 236.673C440.931 228.681 445.811 221.78 446.526 209.258C446.579 208.038 446.654 206.818 446.726 205.638C446.936 202.193 447.135 198.939 446.848 195.513C446.8 195.212 446.737 194.7 446.65 193.998C446.08 189.38 444.345 175.325 440.123 172.153C439.452 171.649 438.768 171.461 438.032 171.58L437.972 171.586C435.698 171.674 433.486 171.925 432.702 173.159C432.226 173.908 432.303 175.046 432.931 176.541C435.424 181.402 437.138 190.269 437.298 199.14C437.408 205.2 436.863 216.51 431.98 224.172C428.73 229.272 424.201 231.742 418.523 231.519L418.467 231.514C414.704 230.942 414.086 228.324 413.838 225.159C412.609 224.947 411.395 224.815 410.217 224.686C408.612 224.512 406.951 224.331 405.222 223.946L405.147 223.923C404.989 223.86 404.934 223.873 404.934 223.874C404.852 223.911 404.695 224.251 404.59 224.476C404.083 225.57 403.234 227.4 399.606 228.101C399.059 228.232 398.499 228.297 397.937 228.296C393.606 228.296 388.932 224.61 386.539 220.503C382.307 214.744 380.978 207.269 382.477 197.654C383.744 189.528 386.796 181.3 389.906 173.619C389.989 173.388 390.262 172.629 390.135 172.378C390.049 172.207 389.67 172.032 389.19 171.81C388.9 171.676 388.573 171.524 388.192 171.324C384.804 170.047 381.054 168.935 379.319 171.786C375.804 178.786 373.377 187.37 372.483 195.961C371.497 205.425 372.357 214.66 374.969 222.668C375.608 224.835 376.682 226.613 377.818 228.496C378.396 229.455 378.995 230.446 379.539 231.502L379.55 231.524C380.981 234.667 383.023 237.135 385.186 239.749C385.842 240.543 386.521 241.364 387.186 242.21L387.206 242.237C389.756 245.975 389.828 250.249 389.898 254.382C389.946 257.278 389.997 260.271 390.922 263ZM387.537 376.284C386.277 385.351 382.829 381.883 376.335 382.72C354.212 383.23 351.202 384.133 350.62 383.506C349.54 376.878 364.562 373.534 368.197 370.343C368.674 370 368.87 370.368 369.237 370.849C373.679 376.131 381.038 377.049 387.537 376.284Z"
              fill="white"/>
        <path d="M351.685 384.219C350.796 384.219 350.504 384.114 350.255 383.845L350.152 383.735L350.128 383.586C349.332 378.699 356.306 375.594 361.909 373.099C364.405 371.988 366.762 370.939 367.868 369.968L367.906 369.938C368.736 369.341 369.256 370.04 369.536 370.415L369.628 370.538C374.53 376.357 382.915 376.325 387.479 375.788L388.12 375.713L388.031 376.353C387.085 383.159 384.914 383.364 380.838 383.147C379.541 383.078 378.072 383 376.399 383.215L376.347 383.219C364.788 383.486 358.39 383.863 354.953 384.066C353.366 384.159 352.355 384.219 351.685 384.219ZM351.082 383.187C351.507 383.269 352.836 383.19 354.895 383.069C358.336 382.866 364.738 382.488 376.298 382.221C378.049 381.998 379.559 382.079 380.891 382.149C384.288 382.33 386.053 382.423 386.948 376.849C382.07 377.33 373.831 377.088 368.856 371.17L368.736 371.011C368.666 370.917 368.575 370.795 368.513 370.731L368.505 370.736C367.28 371.801 364.978 372.826 362.315 374.011C357.126 376.321 350.694 379.185 351.082 383.187ZM422.465 375.945C422.467 375.914 422.476 375.885 422.491 375.859C422.506 375.833 422.527 375.81 422.553 375.794C422.578 375.777 422.607 375.767 422.637 375.763C422.668 375.76 422.698 375.763 422.727 375.774C428.875 378.023 436.078 376.829 441.562 373.32C442.208 372.941 442.499 372.332 443.2 371.954C443.224 371.941 443.251 371.933 443.278 371.931C443.306 371.929 443.333 371.933 443.359 371.942C444.517 372.356 445.803 373.066 447.014 373.622L447.024 373.627C452.068 376.357 458 379.242 459.123 382.505C459.164 382.623 459.09 382.75 458.966 382.768C452.947 383.614 446.753 382.788 440.607 382.999C440.603 382.999 440.599 382.999 440.594 382.999C429.851 382.575 425.773 384.021 423.925 383.124C422.48 382.422 422.202 380.018 422.465 375.945Z"
              fill="white"/>
        <path d="M425.747 383.923C424.883 383.923 424.241 383.832 423.707 383.572C421.909 382.699 421.711 379.879 421.967 375.912V375.912C421.981 375.695 422.098 375.494 422.281 375.375C422.463 375.257 422.693 375.231 422.898 375.305C428.642 377.406 435.691 376.484 441.293 372.899C441.56 372.743 441.75 372.548 441.97 372.322C442.232 372.053 442.529 371.748 442.963 371.514C443.049 371.468 443.143 371.441 443.241 371.433C443.338 371.426 443.435 371.439 443.527 371.472C444.325 371.758 445.178 372.177 446.003 372.582C446.407 372.781 446.824 372.986 447.222 373.168L447.262 373.189C447.753 373.455 448.254 373.722 448.758 373.992C453.556 376.559 458.518 379.213 459.594 382.342C459.628 382.44 459.64 382.544 459.629 382.647C459.618 382.75 459.584 382.849 459.53 382.937C459.476 383.025 459.404 383.099 459.319 383.155C459.233 383.211 459.136 383.248 459.035 383.262C455.28 383.79 451.407 383.673 447.663 383.56C445.352 383.49 442.962 383.417 440.624 383.498L440.604 383.498L440.571 383.497C434.99 383.277 431.157 383.569 428.619 383.763C427.439 383.852 426.507 383.923 425.747 383.923ZM422.938 376.378C422.718 380.269 423.083 382.16 424.143 382.674C424.904 383.044 426.274 382.94 428.544 382.767C431.102 382.572 434.968 382.278 440.602 382.499C442.972 382.419 445.372 382.491 447.693 382.562C451.267 382.67 454.959 382.781 458.513 382.325C457.289 379.687 452.518 377.134 448.288 374.872C447.785 374.603 447.286 374.336 446.796 374.071C446.389 373.883 445.969 373.677 445.564 373.478C444.81 373.108 444.032 372.725 443.322 372.46C443.079 372.614 442.886 372.811 442.684 373.019C442.437 373.272 442.181 373.535 441.815 373.75C438.054 376.157 433.652 377.412 429.385 377.412C427.163 377.413 424.979 377.073 422.938 376.378ZM421.183 205.262C420.554 209.718 425.38 209.796 423.36 212.345C418.531 214.476 424.589 221.532 417.069 221.799C416.06 221.96 415.538 222.634 414.923 223.421C413.541 221.908 406.778 222.443 405.816 221.905C404.57 222.034 405.265 220.86 405.152 220.003C404.968 218.107 405.138 216.104 404.467 214.722C403.895 213.995 402.851 213.994 402.608 213.019C402.458 212.143 402.654 211.175 403.426 210.578C403.752 210.214 404.221 210.043 404.649 210.454C409.89 214.753 418.261 210.742 421.11 205.24C421.13 205.201 421.189 205.219 421.183 205.262Z"
              fill="white"/>
        <path d="M414.959 224.186L414.555 223.758C413.821 222.955 410.717 222.812 408.662 222.718C407.115 222.647 406.213 222.597 405.727 222.412C405.332 222.428 405.038 222.332 404.831 222.118C404.477 221.751 404.55 221.223 404.614 220.756C404.648 220.513 404.683 220.261 404.657 220.069C404.6 219.484 404.576 218.908 404.553 218.352C404.5 217.078 404.449 215.872 404.043 214.992C403.87 214.793 403.626 214.656 403.368 214.512C402.901 214.25 402.319 213.924 402.124 213.14L402.116 213.103C401.916 211.935 402.279 210.858 403.086 210.211C403.372 209.906 403.721 209.731 404.071 209.717C404.3 209.709 404.642 209.765 404.978 210.08C407.318 211.99 410.019 211.936 411.875 211.554C415.493 210.809 419.026 208.179 420.666 205.011C420.725 204.898 420.821 204.809 420.939 204.761C421.056 204.712 421.187 204.706 421.308 204.745C421.429 204.784 421.532 204.864 421.6 204.971C421.667 205.079 421.695 205.207 421.677 205.332V205.333C421.389 207.373 422.359 208.363 423.215 209.237C424.055 210.095 425.009 211.068 423.751 212.655L423.674 212.752L423.561 212.802C421.711 213.618 421.717 215.224 421.724 217.082C421.732 219.327 421.743 222.12 417.119 222.297C416.326 222.434 415.904 222.975 415.322 223.721L414.959 224.186ZM405.922 221.393L406.059 221.47C406.316 221.611 407.642 221.672 408.708 221.721C411.448 221.847 413.686 222.009 414.842 222.72C415.391 222.045 415.983 221.467 416.99 221.306L417.051 221.3C420.742 221.17 420.735 219.457 420.726 217.086C420.719 215.188 420.711 213.04 423.041 211.943C423.632 211.153 423.383 210.834 422.502 209.935C421.816 209.234 420.939 208.339 420.693 206.87C418.712 209.646 415.427 211.841 412.076 212.531C409.106 213.144 406.428 212.559 404.333 210.84L404.303 210.814C404.196 210.711 404.131 210.714 404.109 210.714C404.021 210.718 403.905 210.791 403.798 210.91L403.732 210.973C402.973 211.559 403.031 212.512 403.096 212.915C403.187 213.253 403.421 213.397 403.856 213.641C404.187 213.827 404.563 214.037 404.859 214.414L404.893 214.456L404.916 214.505C405.436 215.576 405.491 216.904 405.55 218.31C405.573 218.853 405.596 219.415 405.649 219.955C405.69 220.264 405.644 220.598 405.603 220.893C405.58 221.058 405.547 221.297 405.56 221.411C405.597 221.416 405.661 221.42 405.765 221.409L405.922 221.393ZM378.506 152.012C380.557 154.634 381.524 157.836 383.259 160.842C385.516 161.924 383.002 158.502 382.8 157.726C381.679 155.335 380.771 152.935 380.17 150.323C381.469 151.009 386.109 163.931 386.39 160.064C384.752 156.13 381.368 152.116 382.504 150.014C382.51 150.003 382.518 149.994 382.529 149.987C382.539 149.98 382.55 149.975 382.563 149.974C382.575 149.972 382.587 149.973 382.599 149.976C382.611 149.98 382.622 149.986 382.631 149.994C386.495 153.608 385.757 161.71 391.992 162.949C391.954 162.651 392.146 162.516 392.365 162.574C395.073 163.056 396.676 160.475 398.557 159.014C401.219 159.887 392.286 165.715 392.002 166.573C390.845 167.632 390.496 169.065 389.754 170.476C384.115 167.309 382.411 168.589 382.862 167.382C384.201 161.461 377.523 154.287 378.488 152.015C378.491 152.007 378.501 152.006 378.506 152.012Z"
              fill="white"/>
        <path d="M389.875 170.888L389.607 170.737C386.515 169.001 384.641 168.623 383.634 168.42C383.043 168.301 382.718 168.235 382.563 167.956C382.442 167.74 382.503 167.493 382.574 167.297C383.327 163.92 381.382 160.09 379.818 157.011C378.669 154.748 377.761 152.96 378.212 151.897L378.278 151.741L378.625 151.689L378.742 151.828C380.018 153.46 380.859 155.263 381.749 157.173C382.278 158.308 382.825 159.481 383.471 160.611C383.706 160.717 383.835 160.745 383.898 160.752C383.892 160.423 383.343 159.433 383.071 158.943C382.804 158.462 382.592 158.079 382.518 157.831C381.272 155.169 380.433 152.804 379.878 150.39L379.732 149.753L380.31 150.058C380.895 150.367 381.773 152.188 383.157 155.134C384.085 157.108 385.466 160.047 386.025 160.449C386.045 160.39 386.069 160.287 386.085 160.113C385.554 158.852 384.846 157.585 384.161 156.359C382.68 153.711 381.402 151.424 382.24 149.871C382.297 149.768 382.396 149.697 382.513 149.678C382.571 149.669 382.63 149.673 382.685 149.69C382.741 149.707 382.792 149.736 382.835 149.776C384.42 151.258 385.254 153.468 386.061 155.604C387.256 158.769 388.387 161.764 391.747 162.588C391.78 162.516 391.828 162.452 391.888 162.4C392.031 162.275 392.227 162.233 392.428 162.281C394.298 162.609 395.591 161.365 396.959 160.048C397.415 159.609 397.887 159.155 398.374 158.778L398.499 158.68L398.65 158.73C399.143 158.892 399.296 159.195 399.337 159.42C399.547 160.569 397.318 162.472 394.383 164.84C393.449 165.593 392.39 166.447 392.283 166.674L392.259 166.749L392.204 166.794C391.432 167.5 391.032 168.404 390.608 169.362C390.428 169.77 390.241 170.193 390.018 170.616L389.875 170.888ZM383.093 167.664C383.181 167.718 383.471 167.776 383.752 167.833C384.761 168.036 386.614 168.41 389.627 170.064C389.783 169.748 389.924 169.429 390.061 169.119C390.502 168.121 390.92 167.177 391.755 166.394C391.928 166.068 392.532 165.563 394.007 164.373C395.721 162.991 398.911 160.418 398.748 159.528C398.743 159.5 398.73 159.429 398.605 159.358C398.192 159.692 397.793 160.076 397.374 160.48C395.955 161.845 394.488 163.256 392.312 162.869L392.288 162.864L392.286 162.863C392.286 162.875 392.286 162.891 392.288 162.912L392.34 163.324L391.933 163.243C388.011 162.463 386.735 159.084 385.501 155.816C384.759 153.851 383.993 151.822 382.652 150.435C382.262 151.735 383.44 153.844 384.683 156.067C385.389 157.329 386.119 158.634 386.666 159.949L386.693 160.015L386.688 160.086C386.67 160.334 386.623 160.991 386.164 161.076C385.431 161.212 384.565 159.536 382.615 155.388C382.043 154.17 381.386 152.772 380.858 151.798C381.386 153.658 382.105 155.537 383.071 157.599L383.09 157.651C383.135 157.824 383.368 158.245 383.594 158.652C384.318 159.957 384.73 160.779 384.347 161.187C384.054 161.498 383.542 161.311 383.129 161.113L383.046 161.073L382.999 160.992C382.32 159.814 381.754 158.6 381.207 157.426C380.438 155.777 379.707 154.208 378.704 152.781C378.815 153.712 379.54 155.141 380.352 156.74C381.963 159.91 383.967 163.856 383.154 167.448L383.143 167.487C383.105 167.586 383.095 167.639 383.093 167.664ZM445.887 154.706C444.576 158.162 441.656 161.027 439.75 164.173C440.74 165.97 446.012 156.509 447.311 156.687C445.495 161.647 439.781 165.052 439.616 170.791C435.641 169.931 432.584 171.794 432.052 171.031C431.305 166.251 424.651 162.101 425.671 159.49C426.349 158.962 426.667 160.198 427.047 160.76C435.23 172.092 440.329 154.355 443.573 153.863C444.135 155.148 443.081 156.247 442.277 157.293C439.15 161.457 436.947 163.243 437.876 163.593C439.208 164.318 445.592 153.49 445.887 154.706Z"
              fill="white"/>
        <path d="M432.56 171.518C432.219 171.518 431.967 171.433 431.807 171.202L431.767 171.146L431.757 171.078C431.395 168.763 429.568 166.564 427.956 164.624C426.273 162.598 424.819 160.848 425.393 159.381L425.423 159.304L425.488 159.254C425.7 159.089 425.916 159.03 426.132 159.078C426.562 159.175 426.806 159.661 427.042 160.13C427.13 160.305 427.213 160.471 427.295 160.592C429.062 163.037 430.829 164.268 432.512 164.236C435.424 164.185 437.885 160.51 439.862 157.558C441.293 155.422 442.423 153.735 443.529 153.567L443.756 153.532L443.848 153.743C444.422 155.057 443.545 156.167 442.772 157.146C442.684 157.257 442.598 157.366 442.514 157.475C441.38 158.985 440.382 160.166 439.58 161.115C438.787 162.054 437.967 163.024 437.96 163.303C437.965 163.306 437.972 163.309 437.982 163.313L438.019 163.33C438.053 163.336 438.416 163.357 439.781 161.725C440.668 160.664 441.712 159.226 442.635 157.956C444.801 154.973 445.401 154.225 445.868 154.318C446.021 154.349 446.137 154.467 446.178 154.635L446.2 154.725L446.167 154.812C445.331 157.017 443.847 158.991 442.413 160.9C441.631 161.94 440.825 163.013 440.148 164.097C440.816 164.002 442.582 161.649 443.762 160.077C445.74 157.443 446.677 156.299 447.352 156.39L447.721 156.441L447.593 156.79C446.833 158.866 445.394 160.688 444.004 162.45C442.04 164.937 440.01 167.51 439.915 170.799L439.905 171.16L439.553 171.084C437.302 170.596 435.386 171 433.987 171.295C433.408 171.417 432.931 171.518 432.56 171.518ZM432.332 170.889C432.523 170.991 433.261 170.836 433.863 170.709C435.166 170.435 437.103 170.027 439.333 170.43C439.559 167.115 441.578 164.556 443.533 162.079C444.707 160.592 445.916 159.061 446.693 157.395C446.018 158.07 444.991 159.439 444.241 160.438C442.22 163.129 440.928 164.759 440.048 164.698C439.882 164.686 439.649 164.61 439.487 164.317L439.404 164.166L439.494 164.017C440.213 162.83 441.088 161.666 441.934 160.541C443.136 158.941 444.374 157.294 445.212 155.525C444.642 156.21 443.823 157.339 443.118 158.309C440.141 162.409 438.632 164.305 437.752 163.866C437.505 163.767 437.414 163.597 437.381 163.47C437.246 162.95 437.834 162.254 439.123 160.729C439.92 159.786 440.912 158.612 442.037 157.113C442.125 156.999 442.213 156.888 442.301 156.775C442.974 155.924 443.612 155.117 443.385 154.231C442.564 154.6 441.49 156.203 440.359 157.891C438.304 160.959 435.747 164.778 432.522 164.835C430.597 164.871 428.724 163.593 426.804 160.935C426.696 160.775 426.604 160.592 426.507 160.399C426.375 160.136 426.154 159.697 426 159.662C425.977 159.657 425.948 159.668 425.921 159.682C425.571 160.815 426.892 162.406 428.416 164.24C430.056 166.215 431.912 168.449 432.332 170.889Z"
              fill="white"/>
        <path d="M383.21 149.64C384.881 150.239 385.241 152.117 385.988 153.547C387.574 156.626 388.616 160.685 391.475 161.647C393.325 162.019 396.754 158.883 397.395 158.474C398.888 157.934 399.926 159.099 399.898 160.438C398.907 164.88 392.629 165.47 391.455 169.978C390.013 172.148 392.607 172.447 392.456 174.318C388.064 183.223 384.439 197.61 384.54 203.166C383.585 215.148 391.116 225.401 399.025 225.926C401.338 226.337 401.976 224.433 402.671 222.827C402.904 222.085 403.628 219.486 402.867 219.587C398.417 217.228 394.716 212.48 395.552 207.268C395.615 206.922 395.53 206.891 395.129 206.934C391.806 207.046 388.905 204.842 387.823 201.779C384.976 191.877 398.455 186.507 402.9 195.198C403.289 195.873 403.273 196.582 403.576 197.296C405.17 196.66 406.744 195.778 408.476 195.443C413.944 194.57 419.81 197.068 421.337 200.237C422.014 202.427 423.153 203.874 422.959 206.131C423.002 207.264 422.969 208.276 423.9 209.087C424.871 209.931 426.104 211.123 425.38 212.563C424.902 213.209 423.696 213.337 423.28 213.775C422.947 215.448 422.991 217.274 422.72 218.844C422.2 223.963 416.534 219.974 416.073 225.23C415.936 227.912 416.588 229.516 418.84 230.289C421.939 231.333 425.828 227.925 427.213 226.336C430.94 222.341 432.527 216.98 433.657 211.744C434.605 207.187 434.818 202.709 435.144 198.093C434.855 193.406 434.335 188.729 433.133 184.209C431.929 179.938 429.169 174.793 430.255 173.253C430.482 172.724 431.064 172.388 430.815 171.73C430.154 166.761 425.372 165.203 424.496 161.239C424.047 159.688 425.772 158.06 427.218 159.022C428.864 160.458 430.872 163.597 432.449 163.399C436.91 163.543 441.646 149.472 444.544 154.438C446.191 153.511 447.626 154.44 446.561 156.188C449.749 156.367 448.051 158.17 447.116 159.706C444.585 163.682 440.912 167.805 440.675 170.912C441.675 171.616 442.989 172.088 443.681 173.263C447.326 178.57 448.418 185.045 449.081 191.33C450.689 200.635 449.144 211.963 448.185 217.627C447.129 222.868 444.404 227.541 441.574 232.026C427.923 252.722 427.922 243.273 427.84 263.951C427.829 265.324 427.914 266.549 427.251 267.814C427.068 268.542 427.504 269.481 427.592 270.276C429.03 278.702 431.001 286.903 432.653 295.227C435.234 309.513 437.482 323.784 439.856 338.08C444.91 367.205 445.969 368.291 444.127 370.847C448.226 371.869 465.088 380.346 458.311 384.14C452.977 385.14 447.522 384.461 442.124 384.632C420.176 384.4 423.305 384.989 422.045 381.275C421.058 378.137 421.842 376.503 421.368 374.589C419.373 373.046 419.382 367.973 418.85 366.317C418.077 362.217 416.944 358.258 416.516 354.084C415.806 348.959 415.913 343.949 415.323 338.826C414.206 330.878 413.279 323.033 412.684 315.037C412.361 312.12 410.895 304.067 406.866 306.242C404.861 308.9 403.319 314.635 402.702 316.216C400.758 321.72 400.198 327.561 399.079 333.292C397.322 343.94 395.721 354.612 394.275 365.306C391.952 379.082 388.43 373.781 388.276 377.424C387.46 382.327 387.156 384.171 383.057 384.046C379.771 384.181 376.538 384.204 373.228 384.399C360.287 384.738 351.746 385.311 351.454 384.889C347.796 383.43 350.21 378.771 352.515 377.171C354.257 375.629 356.176 374.931 358.272 374.045C361.584 372.609 364.797 371.283 368.025 369.661C368.547 369.473 367.831 368.522 367.792 368.122C367.037 366.153 367.473 364.13 367.659 362.08C367.902 359.446 368.19 356.854 368.453 354.205C370.223 339.153 373.822 324.382 377.437 309.67C380.167 298.489 382.734 287.299 386.654 276.45C387.794 273.047 388.785 269.647 389.528 266.133C389.566 265.835 389.61 265.702 389.347 265.417C388.033 262.966 387.692 260.153 387.529 257.39C387.384 254.644 387.639 251.86 387.126 249.121C385.313 241.813 381.976 240.735 379.449 236.754C377.303 233.538 375.669 230.08 373.787 226.723C371.782 222.728 371.177 218.651 370.527 214.472C368.622 201.641 370.555 190.176 374.636 179.143C379.929 164.484 380.762 168.907 381.91 167.706C382.752 161.581 373.198 150.142 379.205 151.723C378.571 149.345 380.051 149.485 381.593 150.289C381.836 149.752 382.579 149.576 383.21 149.64ZM416.771 270.553L416.789 270.68C419.826 270.121 425.63 269.417 426.014 266.889C426.203 260.015 424.933 250.578 428.448 246.289C435.815 237.736 442.074 227.831 443.584 223.962C447.1 216.873 447.001 208.79 447.476 201.043C447.64 196.355 446.899 191.947 446.225 187.373C445.739 182.598 442.625 171.298 438.983 171.071C433.426 171.041 430.091 172.137 432.991 177.886C439.22 193.128 438.251 220.262 427.722 228.143C424.832 230.616 419.672 231.96 416.783 230.488C414.574 229.012 414.511 227.601 414.432 225.695C414.394 225.287 414.511 224.694 414.119 224.651C411.543 224.287 409.221 224.19 406.744 223.709C403.976 223.197 404.868 223.122 403.742 225.07C403.102 226.201 401.855 226.656 400.782 227.361C399.628 227.715 398.43 227.763 397.205 227.83C392.269 227.114 388.634 223.17 386.154 219.073C381.265 211.325 381.705 201.443 384.026 192.9C385.377 186.369 387.741 180.27 390.247 174.149C390.45 173.335 391.209 172.149 390.089 171.726C387.007 169.961 381.989 168.588 379.979 170.32C376.16 173.27 372.548 191.271 372.462 192.624C370.376 203.778 371.963 216.663 375.389 225.16C383.557 240.324 383.272 237.738 386.743 242.443C391.306 249.519 388.097 256.911 390.479 263.228C391.685 265.827 396.803 267.711 398.094 268.144C404.074 270.353 410.431 271.174 416.771 270.553ZM387.537 376.284C370.332 377.938 369.62 368.604 367.897 370.506C364.168 372.815 360.356 374.572 356.34 376.282C353.555 377.739 349.952 380.48 350.636 383.528C353.128 384.151 355.973 383.234 358.604 383.334C390.335 381.728 385.058 384.869 387.537 376.284ZM422.482 375.682C421.332 385.199 424.951 382.395 426.498 382.734C431.351 382.918 435.981 382.894 440.787 383.001C446.874 382.874 460.853 383.671 459.088 382.339C457.753 379.868 456.271 378.926 454.205 377.722C451.679 376.105 449.245 374.725 446.571 373.403C442.185 371.399 443.821 371.61 441.68 373.231C436.145 376.969 428.331 377.99 422.482 375.682ZM421.222 205.015C416.621 213.557 406.888 213.289 404.487 210.313C404.013 210.008 403.648 210.365 403.285 210.707C402.518 211.345 402.385 212.612 402.767 213.424C403.271 214.102 404.223 214.204 404.661 214.981C405.078 217.185 405.219 219.518 405.071 221.801C409.296 222.586 414.576 222.22 414.923 223.421C415.495 222.646 416.216 221.831 417.269 221.779C422.841 221.563 420.627 216.827 421.71 213.439C422.067 212.795 422.994 212.75 423.546 212.22C424.788 210.011 421.533 209.01 421.261 207.517C421.119 206.727 421.302 205.68 421.222 205.015ZM378.495 151.998C377.86 152.809 379.741 155.877 379.875 156.414C381.396 159.912 383.725 163.697 382.877 167.311C382.911 167.532 382.588 167.848 382.901 167.908C383.711 168.119 384.542 168.297 385.401 168.545C386.958 168.968 388.341 169.782 389.753 170.476C390.408 169.288 390.776 167.784 391.799 166.79C392.867 165.203 401.072 159.938 398.576 159.014C398.3 159.04 398.263 159.088 398.048 159.346C393.643 164.517 391.904 161.693 391.992 162.949C385.696 161.698 386.548 153.57 382.555 149.925C381.131 152.272 386.222 158.615 386.451 160.235C386.432 160.352 386.676 160.438 386.441 160.551C385.294 161.472 384.754 158.587 384.275 158.022C381.684 153.384 381.154 150.87 380.17 150.323C381.007 154.011 382.575 157.483 384.346 160.8C383.741 161.136 383.412 161.136 383.168 160.709C381.146 156.878 379.924 153.597 378.495 151.998ZM445.887 154.706C444.439 155.237 443.662 157.534 442.466 158.722C438.791 162.987 438.526 164.311 437.648 163.406C437.929 161.809 445.802 154.418 443.332 153.948C439.203 156.858 438.066 163.917 432.437 164.545C432.086 164.525 431.575 164.755 431.662 164.193C429.487 164.078 427.871 162.159 426.839 160.401C426.432 159.273 425.424 158.837 425.526 160.343C425.644 161.102 426.249 161.614 426.597 162.316C428.462 165.338 431.544 167.584 432.109 171.25C434.614 170.936 437.119 170.208 439.616 170.791C439.829 164.844 446.587 160.162 447.312 156.687C444.872 158.342 443.47 161.186 441.48 163.363C440.331 165.153 439.497 164.346 439.844 163.815C442.102 160.846 444.443 158.113 445.887 154.706Z"
              fill="black"/>
    </g>
    <g clip-path="url(#clip1_1_2)">
        <path d="M439.267 28.1506C439.121 193.484 474.074 151.183 393.941 166.713C395.364 165.854 397.021 161.348 391.636 164.759C372.638 174.259 232.056 184.495 226.826 190.525C218.083 158.087 214.985 123.999 209.568 89.9393C204.949 51.7781 199.208 69.4399 261.076 55.5504C287.138 50.6443 444.77 16.4864 439.267 28.1506ZM442.366 154.931C439.662 114.173 437.012 73.5967 434.88 31.8908C410.426 46.6756 328.542 123.252 326.717 115.778C276.082 92.8553 232.114 79.6132 210.583 67.7388C228.439 175.796 225.687 190.403 238.693 185.122C307.075 174.683 373.47 165.003 442.366 154.931H442.366ZM214.348 66.1937C252.081 82.0759 292.707 96.2462 330.902 111.312C362.099 83.923 395.275 57.6208 428.063 30.5413C357.293 39.7534 286.325 56.1456 214.348 66.1937Z"
              fill="black"/>
        <path d="M442.366 154.931C371.959 165.165 301.581 175.594 231.232 186.218C220.811 148.034 217.624 107.565 210.583 67.7388C249.258 84.8736 291.612 102.015 331.522 116.247C364.236 86.8252 399.252 59.3368 434.88 31.8911C436.896 72.1278 439.654 113.666 442.366 154.931L442.366 154.931Z"
              fill="white"/>
        <path d="M214.348 66.1937C285.272 56.3765 356.107 39.9009 428.063 30.5413C394.737 55.3237 361.766 89.4444 327.96 111.019C290.3 93.5099 223.573 72.3272 214.348 66.1937Z"
              fill="white"/>
    </g>
    <g clip-path="url(#clip2_1_2)">
        <path d="M197.189 226.188C185.616 219.887 163.556 220.262 162.171 236.896C163.067 248.371 169.948 274.175 177.441 274.756C185.623 277.414 202.021 276.259 199.657 264.652C191.915 239.098 205.084 262.275 222.213 251.713C237.669 243.821 239.243 224.477 243.074 209.238C241.79 204.533 236.861 197.096 232.046 202.927C224.537 214.285 229.836 237.195 210.458 236.187C207.95 235.398 205.862 231.968 203.283 229.9C200.261 227.477 196.945 226.423 197.189 226.188V226.188ZM152.873 360.057C148.406 362.314 142.889 361.915 138.344 359.414C134.275 377.016 132.933 376.54 137.71 376.874C139.831 377.489 139.045 374.564 140.921 373.292C145.008 368.985 146.838 373.552 148.137 377.128C153.24 378.925 159.05 377.961 164.701 378.535C168.633 378.585 171.847 379.17 175.86 379.158C179.015 375.646 153.571 361.78 152.873 360.057V360.057ZM226.921 359.875C223.876 362.894 219.718 367.677 214.627 365.571C214.668 382.728 213.058 380.605 222.391 381.197C220.264 377.531 222.576 373.806 227.1 374.083C230.181 374.857 230.282 377.819 231.788 380.645C235.489 382.612 240.557 381.666 244.959 382.421C252.398 383.722 256.772 382.598 250.066 376.439C242.048 371.219 233.969 366.747 226.921 359.875L226.921 359.875Z"
              fill="white"/>
        <path d="M189.983 221.457C194.822 222.154 201.781 230.745 203.694 228.25C231.269 199.842 218.56 182.179 210.784 196.824C204.664 205.372 199.232 216.051 189.983 221.457ZM181.597 192.279C175.996 211.107 165.053 205.802 166.635 211.077C167.162 212.624 168.994 212.486 170.77 212.526C172.645 214.251 172.714 218.356 174.252 221.013C174.494 221.779 174.648 221.594 175.831 221.269C186.648 218.924 187.365 224.54 184.721 214.382C185.092 212.456 188.321 212.089 188.424 209.939C188.622 207.978 186.048 205.118 187.476 203.632C188.203 202.842 189.525 202.32 189.379 201.207C189.062 200.439 189.019 200.243 187.889 199.844C182.037 198.953 184.767 195.291 181.596 192.279L181.597 192.279ZM260.039 186.998C257.874 186.221 255.728 187.4 253.467 188.478C250.693 189.392 242.742 195.233 243.523 191.53C247.292 188.183 254.65 188.05 257.328 182.897C252.257 181.549 242.398 192.632 241.48 189.288C241.98 186.36 249.394 185.184 251.029 182.615C253.037 176.202 237.257 189.25 236.438 190.485C234.153 193.481 231.839 196.816 231.789 200.66C240.216 197.857 238.766 201.136 243.719 203.418C247.118 201.037 251 200.504 254.159 198.06C252.196 195.733 248.818 198.219 246.133 198.517C244.491 198.922 242.608 199.933 242.407 197.382C242.758 192.506 258.141 189.525 260.039 186.998Z"
              fill="white"/>
        <path d="M238.066 185.559C234.572 187.098 226.957 192.684 226.067 189.578C230.132 187.209 235.877 186.59 238.916 182.18C234.347 184.151 229.622 186.185 224.887 188.344C223.776 188.005 223.525 186.786 225.173 186.028C230.008 183.454 235.226 182.553 239.734 179.1C227.218 175.187 222.217 188.642 219.539 187.43C217.986 186.877 220.965 185.358 222.231 183.375C223.497 181.393 223.811 178.947 223.632 177.718C219.796 181.673 217.418 186.239 214.179 190.913C217.608 191.079 220.902 192.188 222.734 195.583C227.337 191.79 234.143 190.645 238.066 185.559Z"
              fill="white"/>
        <path d="M200.49 253.754C236.578 263.258 243.69 230.363 244.328 205.198C247.857 203.11 251.357 202.458 254.791 200.198C258.554 193.011 248.712 194.997 244.981 196.914C249.082 193.074 255.804 192.656 260.419 188.776C262.191 185.941 260.252 184.279 257.126 185.19C260.675 177.47 252.735 184.258 252.176 180.556C248.574 175.807 243.116 184.183 240.301 183.687C240.136 183.092 240.462 182.392 240.859 181.684C241.54 180.466 241.132 178.893 239.893 178.253C235.139 175.801 229.085 178.803 224.703 182.056C224.71 180.536 226.619 176.972 224.33 175.913C219.893 173.62 213.979 187.983 213.341 190.418C203.066 197.433 199.351 211.824 188.402 218.659C183.776 211.16 189.548 213.665 190.188 208.858C190.411 206.843 187.805 204.679 189.021 202.987C189.943 202.316 190.716 201.796 190.689 200.556C190.619 199.868 190.199 199.047 189.127 198.698C184.648 197.954 185.971 192.747 182.42 190.526C181.474 187.05 183.387 182.49 180.47 179.007C171.861 172.405 163.39 183.711 163.206 192.203C161.521 201.322 151.214 204.325 156.26 213.933C158.05 217.457 161.215 219.421 165.02 220.258C167.543 221.26 173.19 218.93 171.805 222.782C163.918 226.748 157.028 234.557 159.534 243.925C161.363 254.3 164.265 263.712 168.667 273.255C161.614 287.743 153.542 301.886 147.387 316.985C130.952 357.785 139.831 351.014 136.09 361.763C131.838 382.05 129.811 378.168 138.342 379.352C144.353 378.479 138.629 372.801 142.789 374.091C147.391 376.932 142.55 379.993 149.902 380.174C157.796 379.994 165.723 380.817 173.906 380.976C189.403 378.115 160.847 363.883 157.593 361.19C156.639 360.587 155.98 360.094 155.02 359.276C154.944 359.065 154.296 358.887 155.081 358.38C157.069 356.486 158.657 354.232 159.831 351.541C166.286 336.713 168.878 320.311 177.893 306.866C184.912 297.111 187.514 298.03 191.433 308.065C199.348 326.233 201.203 346.052 211.995 362.736C213.876 373.151 208.974 383.324 216.612 382.368C231.486 383.618 220.284 375.587 225.388 375.59C226.331 376.009 227.261 376.838 227.711 378.168C229.189 384.924 234.079 382.321 238.583 383.388C244.1 383.263 253.087 386.966 255.662 380.53C257.923 375.053 232.404 363.864 230.803 360.882C229.125 359.281 227.033 358.945 227.916 356.081C227.168 325.358 211.702 298.132 203.15 269.166C203.511 263.705 201.336 259.052 200.49 253.754ZM208.389 235.313C211.438 237.259 214.603 236.152 217.95 234.833C230.876 228.37 224.459 209.443 233.546 201.596C237.671 198.245 242.021 205.316 242.864 208.698C242.73 214.062 240.45 219.14 239.514 224.749C235.555 242.045 226.876 254.182 210.309 254.754C204.703 254.975 197.736 249.007 197.165 254.323C197.628 259.676 201.329 264.81 199.085 270.524C194.856 277.679 180.307 276.692 175.061 273.693C168.008 268.25 167.628 257.82 164.544 249.969C154.789 223.428 178.116 217.312 197.189 226.188C197.075 226.29 203.968 232.261 208.389 235.313L208.389 235.313ZM152.873 360.057C186.63 383.582 179.474 378.917 160.293 378.351C156.221 377.878 151.636 378.877 147.901 376.84C146.3 370.455 142.368 369.685 139.237 375.814C139.089 377.302 138.102 377.014 136.664 376.713C133.491 376.837 134.868 375.07 135.273 372.819C136.266 368.232 136.789 363.912 138.344 359.414C142.5 361.715 148.287 362.463 152.873 360.057ZM226.921 359.875C233.78 366.735 242.756 371.476 250.955 377.153C256.934 383.633 250.814 383.242 245.695 382.477C239.581 381.423 231.951 383 231.147 379.228C229.141 370.259 218.827 374.257 222.391 381.197C220.093 380.703 216.843 381.633 215.116 380.156C214.166 375.464 214.607 370.444 214.627 365.571C219.44 367.647 223.621 363.225 226.921 359.875H226.921ZM189.983 221.457C200.038 215.63 205 204.588 211.938 195.484C219.17 186.116 222.347 199.346 219.432 205.161C216.848 214.033 209.32 220.668 203.614 227.827C198.77 226.515 195.097 222.712 189.983 221.457H189.983ZM204.317 228.472C231.921 203.406 216.589 200.462 228.209 195.201C234.673 191.495 231.132 194.219 230.623 197.92C230.761 202.691 227.003 204.574 225.919 209.164C222.915 222.134 220.188 246.651 204.317 228.472ZM181.597 192.279C183.427 193.812 183.279 196.25 184.315 198.398C187.302 200.549 192.225 199.516 187.117 204.17C186.677 205.755 187.801 206.783 188.335 209.036C189.421 212.131 184.222 212.277 184.767 215.316C186.386 220.362 187.603 221.059 181.844 220.673C178.406 220.047 174.624 222.885 174.003 220.449C172.947 217.994 172.509 215.896 171.31 212.976C170.436 211.739 166.362 213.382 166.516 210.175C166.418 209.15 166.912 208.625 167.896 208.347C175.154 206.239 179.665 199.436 181.596 192.279L181.597 192.279ZM260.039 186.998C254.758 190.714 247.294 191.606 242.685 196.038C241.727 199.153 243.38 199.576 246.133 198.518C248.976 198.267 251.709 195.696 254.159 198.06C251.148 200.356 246.97 201.195 243.419 203.519C238.74 199.889 237.969 198.424 231.789 200.66C232.285 192.123 240.912 186.227 247.632 181.691C250.339 180.271 253.697 181.25 249.567 183.789C246.789 186.368 240.258 187.183 241.828 189.93C247.091 189.037 251.545 182.215 257.328 182.898C256.413 185.001 254.082 186.477 251.777 187.379C249.215 189.157 241.717 190.413 243.96 193.101C250.039 190.835 255.498 185.917 260.039 186.998L260.039 186.998ZM238.066 185.559C234.26 190.529 227.491 191.742 222.734 195.584C221.061 192.46 217.82 191.026 214.179 190.913C217.286 186.468 219.69 181.834 223.632 177.718C223.019 180.598 220.94 183.142 219.652 185.624C218.762 186.851 218.821 186.937 220.081 187.787C221.864 186.328 223.896 185.59 225.949 183.901C229.424 180.956 233.352 178.039 237.605 178.552C238.505 178.66 238.75 179.846 237.977 180.319C233.927 182.795 228.96 183.898 224.704 186.361C222.988 187.04 224.553 188.748 225.46 188.206C229.673 185.973 234.487 184.178 238.916 182.18C236.199 186.075 231.178 187.214 226.77 189.094C224.112 193.597 236.817 186.262 238.066 185.559Z"
              fill="black"/>
        <path d="M248.804 384.434C251.845 384.434 254.53 383.638 255.758 380.568C257.252 376.949 247.277 371.117 239.262 366.432C235.069 363.98 231.447 361.864 230.894 360.833L230.874 360.807C230.448 360.401 230.005 360.081 229.576 359.772C228.346 358.886 227.375 358.186 228.014 356.111L228.019 356.095L228.019 356.078C227.51 335.19 220.08 315.589 212.894 296.632C209.502 287.685 205.995 278.434 203.254 269.154C203.485 265.61 202.672 262.475 201.811 259.156C201.37 257.457 200.915 255.702 200.617 253.894C212.185 256.909 221.635 255.741 228.707 250.424C234.208 246.287 238.334 239.592 240.971 230.527C243.015 223.494 244.179 214.993 244.43 205.257C246.05 204.304 247.689 203.643 249.274 203.003C251.108 202.263 253.004 201.497 254.848 200.284L254.87 200.27L254.882 200.246C255.926 198.252 256.015 196.797 255.147 195.921C253.423 194.179 248.391 195.29 245.599 196.508C247.59 194.868 250.076 193.909 252.695 192.898C255.405 191.852 258.207 190.771 260.486 188.855L260.507 188.831C261.297 187.565 261.415 186.448 260.839 185.685C260.223 184.87 258.883 184.626 257.311 185.032C258.145 183.172 258.341 182.059 257.929 181.539C257.491 180.986 256.484 181.192 255.417 181.41C254.4 181.617 253.348 181.832 252.752 181.415C252.495 181.235 252.34 180.949 252.278 180.54L252.274 180.514L252.258 180.493C249.93 177.424 246.903 179.652 244.231 181.618C242.766 182.696 241.382 183.716 240.384 183.595C240.276 183.083 240.532 182.478 240.948 181.734C241.3 181.105 241.384 180.351 241.178 179.664C240.98 179.005 240.54 178.471 239.939 178.161C234.81 175.515 228.335 179.265 224.817 181.842C224.857 181.452 224.985 180.953 225.12 180.429C225.557 178.731 226.101 176.618 224.373 175.819C223.707 175.475 222.97 175.477 222.186 175.826C218.265 177.575 213.907 187.914 213.251 190.354C208.285 193.757 204.783 198.972 201.396 204.015C197.772 209.413 194.025 214.993 188.435 218.516C185.707 214.062 186.718 213.292 188.115 212.229C189.016 211.542 190.037 210.764 190.289 208.871C190.39 207.965 189.945 207.044 189.515 206.154C188.971 205.029 188.457 203.965 189.095 203.06L189.171 203.005C190.056 202.362 190.819 201.807 190.791 200.553C190.698 199.629 190.087 198.902 189.158 198.6C186.714 198.193 186.027 196.431 185.3 194.567C184.705 193.043 184.09 191.467 182.508 190.46C182.173 189.197 182.214 187.802 182.257 186.327C182.332 183.788 182.409 181.163 180.548 178.941L180.532 178.925C177.669 176.73 174.574 176.33 171.581 177.769C167.031 179.958 163.227 186.431 163.102 192.2C162.444 195.756 160.478 198.348 158.577 200.856C155.751 204.583 153.082 208.104 156.169 213.981C157.851 217.294 160.822 219.44 164.997 220.358C165.892 220.715 167.173 220.654 168.412 220.595C169.873 220.525 171.253 220.46 171.732 221.11C171.983 221.449 171.979 221.972 171.721 222.708C164.409 226.399 156.817 234.168 159.434 243.951C161.286 254.457 164.185 263.773 168.553 273.254C166.219 278.046 163.731 282.884 161.324 287.564C156.448 297.047 151.406 306.853 147.291 316.945C136.199 344.483 136.625 350.328 136.937 354.595C137.086 356.636 137.203 358.248 135.992 361.728C134.901 366.929 133.977 370.468 133.302 373.051C132.415 376.448 132.048 377.854 132.538 378.528C132.904 379.033 133.684 379.078 135.1 379.161C135.951 379.21 137.01 379.271 138.328 379.454L138.342 379.456L138.357 379.454C141.786 378.956 141.497 376.856 141.305 375.466C141.221 374.855 141.148 374.327 141.393 374.119C141.597 373.946 142.04 373.968 142.746 374.186C144.66 375.371 144.894 376.568 145.101 377.625C145.38 379.047 145.6 380.171 149.899 380.277C154.609 380.169 159.22 380.413 164.101 380.671C167.296 380.84 170.599 381.015 173.903 381.079H173.914L173.924 381.077C176.749 380.556 178.306 379.607 178.551 378.257C179.272 374.285 168.441 367.754 161.97 363.853C159.915 362.614 158.292 361.635 157.658 361.11C156.711 360.51 156.067 360.032 155.104 359.213C155.072 359.148 155.014 359.095 154.954 359.04C154.875 358.967 154.793 358.893 154.8 358.816C154.805 358.752 154.868 358.64 155.137 358.466C157.195 356.508 158.756 354.26 159.925 351.582C162.329 346.061 164.225 340.235 166.059 334.602C169.139 325.139 172.325 315.354 177.978 306.923C181.568 301.934 183.907 299.908 185.801 300.145C187.615 300.375 189.219 302.68 191.336 308.102C194.494 315.35 196.717 322.965 198.867 330.329C202.084 341.348 205.411 352.74 211.896 362.775C212.573 366.539 212.366 370.217 212.182 373.463C211.965 377.312 211.794 380.352 213.275 381.737C214.004 382.42 215.096 382.66 216.614 382.471C220.936 382.834 223.484 382.446 224.402 381.285C225.142 380.351 224.737 379.104 224.38 378.005C224.124 377.216 223.882 376.472 224.172 376.071C224.355 375.819 224.746 375.695 225.366 375.692C225.992 375.975 227.096 376.672 227.613 378.2C228.69 383.126 231.646 383.148 234.774 383.171C236.018 383.181 237.304 383.19 238.559 383.488L238.572 383.491H238.585C240.043 383.458 241.729 383.692 243.515 383.939C245.259 384.181 247.089 384.434 248.804 384.434L248.804 384.434ZM230.72 360.945C231.325 362.031 234.784 364.053 239.158 366.61C246.685 371.01 256.993 377.036 255.567 380.49C253.705 385.143 248.54 384.427 243.543 383.735C241.755 383.487 240.07 383.25 238.594 383.284C237.32 382.984 236.027 382.975 234.776 382.965C231.6 382.942 228.857 382.921 227.812 378.146C227.261 376.515 226.083 375.786 225.43 375.495L225.388 375.486H225.386C224.684 375.486 224.232 375.638 224.006 375.95C223.653 376.435 223.899 377.193 224.184 378.069C224.525 379.119 224.912 380.309 224.241 381.158C223.368 382.261 220.874 382.623 216.621 382.265L216.61 382.265L216.599 382.266C215.141 382.448 214.099 382.226 213.415 381.587C212.005 380.267 212.174 377.27 212.389 373.475C212.573 370.212 212.781 366.513 212.096 362.718L212.081 362.68C205.604 352.667 202.28 341.282 199.066 330.272C196.914 322.901 194.689 315.28 191.527 308.024C189.351 302.452 187.753 300.184 185.827 299.941C183.825 299.686 181.5 301.676 177.81 306.806C172.138 315.263 168.948 325.062 165.863 334.539C164.031 340.167 162.136 345.988 159.737 351.499C158.579 354.152 157.033 356.378 155.011 358.305C154.746 358.474 154.609 358.635 154.595 358.799C154.58 358.976 154.711 359.096 154.815 359.192C154.861 359.234 154.913 359.282 154.923 359.311L154.933 359.337L154.953 359.355C155.934 360.19 156.586 360.675 157.538 361.277C158.173 361.804 159.802 362.786 161.864 364.03C168.29 367.904 179.044 374.389 178.349 378.221C178.121 379.476 176.623 380.368 173.898 380.873C170.6 380.809 167.302 380.634 164.113 380.466C159.227 380.207 154.612 379.964 149.9 380.071C145.771 379.969 145.575 378.969 145.304 377.585C145.099 376.54 144.844 375.239 142.843 374.003L142.82 373.993C142.022 373.745 141.527 373.735 141.26 373.962C140.929 374.243 141.009 374.823 141.102 375.495C141.303 376.957 141.554 378.776 138.342 379.248C137.023 379.066 135.964 379.004 135.113 378.955C133.804 378.879 133.014 378.834 132.705 378.407C132.273 377.812 132.658 376.337 133.502 373.104C134.177 370.518 135.102 366.977 136.19 361.784C137.412 358.276 137.293 356.645 137.142 354.581C136.833 350.333 136.408 344.516 147.483 317.023C151.593 306.94 156.634 297.138 161.508 287.659C163.922 282.964 166.419 278.109 168.76 273.3L168.781 273.257L168.76 273.212C164.389 263.733 161.489 254.421 159.635 243.907C157.044 234.218 164.596 226.523 171.851 222.874L171.888 222.856L171.902 222.817C172.198 221.992 172.197 221.393 171.898 220.988C171.353 220.249 169.92 220.318 168.403 220.39C167.185 220.448 165.926 220.507 165.057 220.162C160.929 219.253 158.006 217.143 156.352 213.887C153.325 208.124 155.835 204.814 158.742 200.981C160.657 198.454 162.638 195.842 163.307 192.222C163.432 186.506 167.183 180.114 171.67 177.956C174.585 176.555 177.603 176.944 180.397 179.083C182.201 181.243 182.125 183.825 182.051 186.322C182.007 187.828 181.965 189.25 182.32 190.554L182.33 190.593L182.365 190.614C183.915 191.583 184.521 193.139 185.108 194.643C185.857 196.563 186.564 198.378 189.11 198.8C190.319 199.195 190.546 200.167 190.586 200.567C190.611 201.704 189.922 202.205 189.05 202.838L188.937 202.927C188.213 203.934 188.781 205.109 189.33 206.245C189.747 207.108 190.179 208.001 190.085 208.847C189.844 210.653 188.859 211.403 187.99 212.065C186.554 213.158 185.42 214.022 188.313 218.713L188.368 218.801L188.456 218.747C194.132 215.204 197.912 209.574 201.567 204.131C204.95 199.092 208.449 193.883 213.399 190.504L213.431 190.482L213.44 190.445C214.056 188.094 218.389 177.746 222.27 176.015C222.994 175.692 223.671 175.689 224.282 176.005C225.858 176.734 225.338 178.755 224.92 180.378C224.749 181.044 224.601 181.618 224.599 182.055L224.598 182.261L224.763 182.138C228.199 179.588 234.727 175.705 239.845 178.345C240.395 178.629 240.798 179.119 240.98 179.724C241.074 180.041 241.104 180.373 241.067 180.7C241.031 181.028 240.929 181.346 240.768 181.634C240.398 182.295 240.019 183.055 240.201 183.715L240.218 183.778L240.282 183.789C241.371 183.98 242.752 182.963 244.353 181.785C246.941 179.88 249.874 177.721 252.078 180.598C252.151 181.046 252.338 181.378 252.634 181.585C253.302 182.053 254.398 181.829 255.458 181.613C256.461 181.408 257.408 181.214 257.767 181.668C258.135 182.133 257.895 183.271 257.032 185.148L256.938 185.353L257.155 185.29C258.735 184.829 260.084 185.028 260.674 185.81C261.194 186.498 261.075 187.526 260.341 188.708C258.09 190.596 255.31 191.669 252.621 192.706C249.737 193.819 247.013 194.871 244.91 196.839L244.373 197.343L245.028 197.006C247.481 195.746 253.225 194.272 255.001 196.067C255.795 196.869 255.698 198.235 254.712 200.127C252.893 201.32 251.015 202.079 249.198 202.812C247.589 203.462 245.926 204.133 244.276 205.109L244.227 205.138L244.225 205.196C243.654 227.723 238.391 242.884 228.584 250.259C221.533 255.561 212.09 256.703 200.516 253.655L200.363 253.615L200.388 253.771C200.688 255.644 201.157 257.456 201.612 259.209C202.47 262.516 203.28 265.641 203.048 269.159L203.047 269.178L203.052 269.195C205.795 278.488 209.306 287.75 212.701 296.706C219.879 315.642 227.302 335.22 227.812 356.067C227.14 358.271 228.213 359.045 229.456 359.94C229.875 360.242 230.308 360.554 230.72 360.946V360.945ZM250.095 382.996C251.692 382.996 252.944 382.722 253.372 381.911C253.89 380.931 253.124 379.352 251.031 377.083L251.014 377.068C248.617 375.409 246.117 373.806 243.699 372.255C237.87 368.516 231.841 364.651 226.994 359.802L226.92 359.729L226.607 360.047C223.352 363.356 219.299 367.475 214.668 365.477L214.525 365.415L214.524 365.571C214.52 366.702 214.492 367.862 214.465 368.983C214.375 372.71 214.283 376.564 215.015 380.176L215.022 380.211L215.049 380.234C216.164 381.188 217.893 381.166 219.564 381.143C220.53 381.131 221.527 381.117 222.37 381.298L222.582 381.344L222.483 381.15C221.467 379.174 221.514 377.223 222.611 375.799C223.614 374.498 225.308 373.89 226.928 374.25C228.934 374.696 230.436 376.518 231.047 379.251C231.606 381.874 235.28 381.985 239.533 382.112C241.58 382.174 243.696 382.237 245.677 382.579C247.205 382.807 248.769 382.996 250.095 382.996V382.996ZM250.887 377.232C252.88 379.393 253.655 380.935 253.19 381.814C252.462 383.193 248.81 382.838 245.71 382.375C243.717 382.031 241.594 381.967 239.54 381.906C235.372 381.781 231.774 381.673 231.248 379.206C230.619 376.392 229.06 374.512 226.973 374.048C225.275 373.671 223.499 374.309 222.448 375.673C221.336 377.117 221.251 379.07 222.206 381.056C221.389 380.913 220.461 380.925 219.561 380.937C217.941 380.958 216.267 380.98 215.21 380.1C214.49 376.52 214.582 372.692 214.671 368.988C214.697 367.917 214.723 366.81 214.729 365.726C215.556 366.062 216.363 366.211 217.148 366.211C220.833 366.212 224.061 362.928 226.754 360.192L226.922 360.021C231.772 364.851 237.779 368.703 243.588 372.429C246.002 373.977 248.497 375.577 250.887 377.232L250.887 377.232ZM173.794 379.199C175.373 379.199 176.309 379.015 176.502 378.471C177.061 376.888 170.882 372.481 152.932 359.972L152.881 359.936L152.825 359.965C148.686 362.137 143.021 361.885 138.394 359.324L138.287 359.264L138.247 359.38C137.149 362.555 136.576 365.582 135.969 368.786C135.721 370.092 135.466 371.441 135.172 372.797C135.084 373.284 134.949 373.756 134.829 374.172C134.561 375.107 134.349 375.846 134.726 376.328C135.017 376.7 135.632 376.855 136.656 376.817L136.852 376.858C137.733 377.045 138.429 377.192 138.876 376.864C139.133 376.676 139.284 376.342 139.337 375.844C140.79 373.008 142.471 371.547 144.064 371.728C145.666 371.911 147.028 373.783 147.801 376.865L147.812 376.909L147.852 376.93C150.39 378.315 153.335 378.31 156.187 378.304C157.55 378.302 158.957 378.299 160.281 378.453C163.44 378.547 166.324 378.754 168.641 378.921C170.756 379.074 172.493 379.199 173.794 379.199L173.794 379.199ZM152.865 360.177C169.921 372.063 176.822 376.946 176.307 378.402C176.009 379.246 172.925 379.024 168.656 378.716C166.337 378.549 163.451 378.341 160.296 378.248C158.97 378.093 157.556 378.096 156.187 378.098C153.378 378.103 150.474 378.108 147.99 376.771C147.193 373.627 145.772 371.715 144.088 371.523C142.403 371.33 140.642 372.837 139.145 375.767L139.134 375.804C139.09 376.251 138.966 376.544 138.755 376.698C138.381 376.972 137.725 376.833 136.895 376.656L136.673 376.61L136.661 376.61C135.711 376.648 135.133 376.513 134.888 376.201C134.576 375.801 134.775 375.108 135.028 374.229C135.148 373.808 135.285 373.331 135.374 372.837C135.668 371.482 135.924 370.131 136.171 368.824C136.77 365.666 137.335 362.681 138.402 359.563C143.047 362.09 148.704 362.332 152.866 360.176L152.865 360.177ZM185.836 276.064C186.38 276.064 186.922 276.049 187.46 276.019C190.743 275.833 196.63 274.879 199.174 270.576C200.651 266.817 199.582 263.289 198.549 259.877C197.998 258.06 197.428 256.18 197.267 254.314C197.366 253.415 197.659 252.813 198.164 252.495C199.269 251.8 201.272 252.512 203.593 253.336C205.714 254.09 208.12 254.945 210.312 254.857C218.204 254.584 224.732 251.635 229.716 246.092C234.183 241.122 237.513 233.949 239.614 224.771C239.989 222.523 240.585 220.343 241.162 218.235C242.048 214.991 242.886 211.927 242.966 208.7L242.967 208.686L242.963 208.672C242.313 206.06 239.803 201.757 236.966 200.808C235.737 200.397 234.565 200.635 233.481 201.516C229.384 205.054 228.438 210.692 227.436 216.661C226.238 223.806 224.998 231.194 217.903 234.741C214.327 236.15 211.354 237.082 208.446 235.227C204.256 232.335 197.922 226.865 197.324 226.205L197.374 226.16L197.233 226.094C191.739 223.538 185.745 222.184 180.345 222.279C174.704 222.379 170.026 223.996 166.817 226.954C163.123 230.36 159.713 237.124 164.447 250.004C165.363 252.337 166.056 254.957 166.726 257.49C168.343 263.606 170.015 269.93 174.997 273.774C177.484 275.197 181.685 276.064 185.836 276.064H185.836ZM199.308 252.009C198.825 252.009 198.403 252.101 198.055 252.321C197.493 252.674 197.168 253.326 197.062 254.312C197.225 256.22 197.798 258.109 198.352 259.937C199.375 263.315 200.433 266.809 198.989 270.486C194.713 277.72 180.024 276.411 175.112 273.603C170.197 269.809 168.534 263.52 166.925 257.437C166.254 254.898 165.559 252.273 164.639 249.931C159.946 237.16 163.309 230.469 166.957 227.106C173.267 221.289 185.672 220.948 197.129 226.274C197.737 227.046 204.477 232.738 208.331 235.398L208.334 235.4C211.325 237.309 214.347 236.364 217.987 234.93C225.184 231.332 226.433 223.891 227.64 216.696C228.635 210.764 229.575 205.161 233.613 201.674C234.637 200.843 235.744 200.617 236.901 201.004C239.664 201.928 242.116 206.141 242.76 208.709C242.678 211.906 241.845 214.954 240.963 218.18C240.385 220.293 239.788 222.478 239.412 224.732C234.987 244.069 225.194 254.137 210.305 254.651C208.148 254.738 205.766 253.889 203.662 253.142C201.986 252.547 200.471 252.009 199.308 252.009L199.308 252.009ZM214.061 235.056C214.509 235.056 214.945 235 215.37 234.889C220.919 233.435 223.2 222.522 225.033 213.754C225.372 212.13 225.693 210.596 226.019 209.188C226.486 207.211 227.456 205.737 228.394 204.311C229.634 202.427 230.805 200.647 230.726 197.917C230.889 196.741 231.376 195.643 231.731 194.841C232.072 194.07 232.278 193.605 232.06 193.408C231.81 193.182 231.188 193.374 228.158 195.112C223.422 197.255 223.118 199.054 222.613 202.036C221.888 206.316 220.675 213.479 204.248 228.396L204.174 228.464L204.24 228.54C208.055 232.909 211.284 235.056 214.061 235.056V235.056ZM231.826 193.534C231.869 193.534 231.902 193.543 231.922 193.561C232.03 193.658 231.782 194.217 231.543 194.758C231.183 195.571 230.689 196.684 230.522 197.906C230.598 200.588 229.444 202.342 228.222 204.198C227.274 205.639 226.294 207.128 225.819 209.141C225.492 210.552 225.171 212.087 224.831 213.712C223.01 222.424 220.743 233.267 215.318 234.689C212.399 235.454 208.746 233.366 204.462 228.48C220.869 213.563 222.088 206.37 222.816 202.071C223.326 199.058 223.607 197.398 228.251 195.295C229.356 194.662 231.324 193.534 231.826 193.534ZM203.652 227.944L203.694 227.891C205.109 226.116 206.667 224.338 208.174 222.618C212.799 217.34 217.582 211.882 219.531 205.19C221.52 201.227 220.647 194.239 217.942 192.535C216.758 191.788 214.742 191.684 211.857 195.421C209.939 197.938 208.144 200.644 206.409 203.261C201.876 210.095 197.19 217.162 189.932 221.368L189.71 221.496L189.959 221.557C192.585 222.202 194.86 223.54 197.06 224.835C199.111 226.041 201.231 227.289 203.587 227.927L203.652 227.944L203.652 227.944ZM216.537 192.326C216.993 192.326 217.426 192.453 217.832 192.709C220.466 194.369 221.298 201.209 219.339 205.115C217.396 211.78 212.629 217.22 208.019 222.482C206.526 224.186 204.982 225.948 203.575 227.709C201.274 227.074 199.277 225.9 197.164 224.657C195.02 223.395 192.804 222.091 190.252 221.418C197.428 217.175 202.08 210.16 206.58 203.374C208.314 200.76 210.106 198.057 212.02 195.546C213.666 193.414 215.201 192.326 216.537 192.326L216.537 192.326ZM175.394 221.555C176.004 221.555 176.747 221.377 177.539 221.188C178.869 220.87 180.377 220.51 181.826 220.775C184.331 220.943 185.595 220.921 186.033 220.342C186.441 219.804 186.118 218.892 185.532 217.238C185.331 216.67 185.103 216.026 184.865 215.285C184.616 213.889 185.635 213.143 186.714 212.355C187.847 211.526 189.018 210.67 188.433 209.002C188.23 208.144 187.939 207.458 187.681 206.853C187.279 205.907 186.961 205.159 187.209 204.227C188.881 202.7 189.562 201.706 189.416 201.006C189.269 200.304 188.36 199.997 187.21 199.608C186.298 199.299 185.267 198.95 184.397 198.33C184.032 197.568 183.815 196.76 183.604 195.98C183.219 194.55 182.855 193.199 181.663 192.2L181.539 192.097L181.497 192.253C179.258 200.553 174.29 206.383 167.867 208.248C166.779 208.556 166.317 209.171 166.414 210.185C166.313 212.27 167.998 212.394 169.352 212.494C170.155 212.553 170.915 212.609 171.22 213.027C171.809 214.464 172.211 215.694 172.601 216.883C172.998 218.099 173.374 219.246 173.909 220.49C174.114 221.297 174.658 221.555 175.394 221.555L175.394 221.555ZM180.759 220.476C179.632 220.476 178.511 220.744 177.491 220.988C175.716 221.412 174.433 221.718 174.103 220.424C173.567 219.173 173.192 218.029 172.796 216.819C172.405 215.623 172 214.386 171.406 212.937L171.395 212.916C171.038 212.411 170.226 212.351 169.367 212.288C167.971 212.185 166.528 212.079 166.619 210.18C166.53 209.244 166.92 208.73 167.924 208.446C174.376 206.573 179.373 200.752 181.652 192.465C182.698 193.412 183.042 194.687 183.405 196.033C183.62 196.831 183.842 197.657 184.222 198.443L184.233 198.467L184.255 198.482C185.155 199.131 186.211 199.488 187.143 199.803C188.232 200.171 189.092 200.462 189.214 201.048C189.343 201.663 188.654 202.631 187.048 204.094L187.026 204.114L187.018 204.143C186.736 205.158 187.07 205.941 187.491 206.933C187.746 207.531 188.034 208.209 188.235 209.06C188.773 210.594 187.714 211.368 186.592 212.188C185.51 212.98 184.39 213.798 184.666 215.335C184.908 216.092 185.136 216.737 185.338 217.307C185.881 218.841 186.209 219.768 185.869 220.218C185.49 220.718 184.219 220.729 181.851 220.57C181.491 220.506 181.125 220.474 180.759 220.476H180.759ZM243.414 203.646L243.476 203.606C245.148 202.511 246.969 201.744 248.729 201.002C250.733 200.157 252.625 199.36 254.222 198.142L254.317 198.069L254.231 197.986C252.538 196.353 250.749 196.998 248.855 197.681C247.965 198.002 247.044 198.334 246.124 198.415L246.096 198.421C244.509 199.032 243.397 199.099 242.879 198.615C242.429 198.194 242.395 197.346 242.776 196.093C245.335 193.643 248.847 192.254 252.244 190.91C254.955 189.838 257.758 188.729 260.099 187.082L260.286 186.95L260.063 186.897C257.084 186.188 253.687 188.042 250.092 190.006C248.131 191.077 246.103 192.184 243.993 192.978C243.694 192.598 243.592 192.245 243.681 191.899C243.968 190.781 246.189 189.916 248.336 189.079C249.705 188.545 250.999 188.041 251.825 187.471C253.463 186.828 256.357 185.389 257.422 182.938L257.478 182.811L257.34 182.795C254.033 182.407 251.147 184.446 248.354 186.42C246.178 187.958 244.121 189.412 241.883 189.815C241.685 189.443 241.641 189.102 241.746 188.776C242.062 187.802 243.703 187.059 245.441 186.274C246.976 185.58 248.563 184.862 249.637 183.864C251.732 182.579 251.718 181.806 251.523 181.461C251.089 180.697 249.175 180.764 247.584 181.599C241.082 185.988 232.19 191.99 231.687 200.653L231.678 200.809L231.825 200.756C237.295 198.776 238.478 199.72 241.988 202.519C242.442 202.883 242.898 203.243 243.357 203.6L243.415 203.645L243.414 203.646ZM254 198.052C252.443 199.213 250.599 199.99 248.649 200.812C246.902 201.548 245.095 202.31 243.425 203.393C242.951 203.025 242.519 202.68 242.116 202.359C238.57 199.531 237.354 198.561 231.902 200.509C232.497 192.032 241.272 186.109 247.689 181.776C249.252 180.958 251.008 180.973 251.343 181.563C251.61 182.033 250.926 182.833 249.513 183.702C248.447 184.688 246.876 185.399 245.356 186.086C243.498 186.926 241.893 187.652 241.55 188.713C241.421 189.11 241.485 189.537 241.738 189.981L241.774 190.043L241.845 190.031C244.158 189.639 246.351 188.088 248.473 186.589C251.193 184.665 254.004 182.678 257.175 182.985C256.092 185.295 253.316 186.666 251.739 187.283L251.718 187.295C250.911 187.854 249.624 188.356 248.261 188.887C246.065 189.743 243.794 190.628 243.481 191.848C243.371 192.274 243.506 192.718 243.881 193.167L243.927 193.223L243.996 193.198C246.144 192.397 248.201 191.274 250.19 190.187C253.656 188.295 256.934 186.504 259.785 187.049C257.504 188.608 254.792 189.68 252.168 190.719C248.744 192.073 245.204 193.474 242.614 195.964L242.594 195.982L242.587 196.008C242.172 197.356 242.223 198.284 242.738 198.766C243.324 199.314 244.473 199.265 246.156 198.619C247.097 198.534 248.026 198.199 248.924 197.875C250.723 197.227 252.423 196.614 253.999 198.052L254 198.052ZM222.702 195.742L222.798 195.664C224.738 194.098 227.055 192.95 229.295 191.84C232.535 190.235 235.886 188.575 238.148 185.621L238.453 185.222L237.812 185.583C228.619 190.801 226.904 190.627 226.593 190.311C226.424 190.138 226.51 189.746 226.842 189.176C227.763 188.784 228.726 188.418 229.658 188.064C233.189 186.723 236.84 185.336 239.001 182.238L239.215 181.932L238.874 182.085C237.343 182.777 235.736 183.455 234.182 184.112C231.227 185.361 228.172 186.652 225.412 188.115C225.169 188.259 224.85 188.232 224.552 188.043C224.218 187.832 224.013 187.484 224.041 187.177C224.07 186.876 224.312 186.627 224.742 186.457C226.817 185.257 229.078 184.372 231.265 183.515C233.564 182.615 235.941 181.684 238.03 180.406C238.424 180.166 238.615 179.719 238.517 179.268C238.421 178.825 238.068 178.503 237.617 178.449C233.256 177.923 229.275 180.947 225.883 183.822C224.823 184.693 223.767 185.311 222.746 185.908C221.808 186.457 220.92 186.976 220.075 187.659C219.502 187.272 219.201 187.051 219.158 186.812C219.118 186.584 219.304 186.28 219.735 185.684C220.142 184.904 220.607 184.145 221.1 183.341C222.185 181.572 223.306 179.743 223.732 177.739L223.808 177.385L223.557 177.646C220.814 180.511 218.778 183.681 216.809 186.746C215.941 188.098 215.043 189.496 214.095 190.854L213.986 191.01L214.176 191.016C218.107 191.138 221.114 192.777 222.643 195.632L222.701 195.742L222.702 195.742ZM237.651 185.912C235.429 188.572 232.266 190.138 229.204 191.655C226.99 192.752 224.702 193.885 222.765 195.426C221.208 192.616 218.237 190.986 214.372 190.817C215.283 189.505 216.146 188.16 216.983 186.858C218.883 183.9 220.846 180.843 223.444 178.066C222.972 179.894 221.932 181.59 220.925 183.233C220.43 184.041 219.962 184.803 219.561 185.576C219.109 186.197 218.899 186.53 218.956 186.848C219.014 187.179 219.362 187.427 220.024 187.873L220.087 187.916L220.147 187.867C220.997 187.171 221.897 186.644 222.85 186.087C223.878 185.485 224.941 184.863 226.015 183.981C229.375 181.133 233.317 178.138 237.593 178.654C238.032 178.707 238.255 179.029 238.316 179.313C238.379 179.602 238.309 179.995 237.923 180.231C235.85 181.499 233.481 182.427 231.19 183.324C228.997 184.183 226.728 185.071 224.653 186.272C224.026 186.519 223.862 186.891 223.837 187.158C223.801 187.54 224.044 187.967 224.443 188.218C224.808 188.449 225.208 188.477 225.513 188.295C228.26 186.839 231.311 185.549 234.262 184.303C235.698 183.696 237.179 183.07 238.605 182.433C236.456 185.262 232.965 186.588 229.586 187.871C228.641 188.23 227.664 188.601 226.73 189L226.699 189.013L226.682 189.042C226.272 189.737 226.195 190.199 226.447 190.455C227.376 191.401 232.991 188.545 237.652 185.912H237.651Z"
              fill="black"/>
    </g>
    <defs>
        <clipPath id="clip0_1_2">
            <rect width="110.324" height="235.41" fill="white" transform="translate(349.574 149.628)"/>
        </clipPath>
        <clipPath id="clip1_1_2">
            <rect width="239.799" height="164.787" fill="white" transform="translate(206.932 25.738)"/>
        </clipPath>
        <clipPath id="clip2_1_2">
            <rect width="128.877" height="208.877" fill="white" transform="matrix(-1 0 0 1 261.196 175.562)"/>
        </clipPath>
    </defs>
</svg>
