<svg xmlns="http://www.w3.org/2000/svg" viewBox="0 0 3000 3000" width="3000" height="3000"><g transform="translate(507.0 399.0) rotate(0.0 594.75 1258.5) scale(1.4983051957621705 1.5002405033941675)"><svg width="793.897" height="1677.731" viewBox="0 0 793.897 1677.731"><path d="M678.407 99.3 559.105 64.548 268.981 6.704l-65.99 13.062L15.189 188.267l63.747 45.9 62.203 15.107-19.593 197.787 1.866 98.894L179.39 783.86l-49.552 19.592 44.887 24.257 29.473 97.028-10.422 120.109 10.422 13.304-10.422 204.319-43.308 55.65h47.581l-9.993 130.942-9.599 215.514 550.112-10.497 20.86-144.893 36.385-241.118-56.91-355.458-38.252-248.168-17.033-288.285-12.821-183.793z" fill="#fff"/><path d="M171.866 786.468c-20.219-60.629-26.968-125.774-36.854-190.655 107.445 5.53 218.433 26.439 328.994 28.976-124.414-33.939-361.265-29.031-346.693-52.379 43.982 2.143 90.201 9.526 137.971 11.64-35.432-12.044-128.463-22.277-138.65-37.139-15.771-93.682 19.095-205.658 14.355-290.547C81.408 236.991-4.082 220.878.692 189.259c60.363-76.786 141.679-153.279 215.236-185 84.893-15.366 168.586 20.447 253.991 34.336 66.934 20.45 152.47 16.596 211.987 63.185-121.892-40.849-200.028-14.462-286.716 42.305 365.41 32.414 222.493 57.766 278.429-39.859 7.249-11.04 13.615-3.324 9.318 14.269-22.343 131.195-6.097 256.275 9.078 388.474-1.836 227.473 57.99 443.895 97.872 668.19 17.826 218.64-37.51 292.453-48.421 437.396-6.662 20.282 10.708 48.202-16.933 51.301-51.978-3.386-102.113 2.052-155.947 1.917-149.951-.773-406.764 25.54-400.681.894 18.599-236.902-47.573-181.22 137.238-187.083-178.957-12.686-128.561 6.156-114.82-153.987-118.35 9.448 8.483-30.559-6.078-79.875 7.845-180.197 34.727-181.164 1.318-196.4.231-71.353 21.574-163.793-23.058-222.472-13.569-9.586-35.84-4.376-38.327-25.811 17.212-.775 31.423-9.384 47.686-14.573zM136.34 363.519c235.517 22.517 608.029 14.973 489.946 37.731-161.473-3.303-320.746-13.733-484.18-30.118-8.575-5.482-15.764 55.514-1.72 47.448 49.933-2.627 97.387-5.269 149.407-3.76 52.128 1.921 469.988-21.889 300.985-1.383-149.025 18.841-292.971 6.455-444.515 17.391-18.565-8.344-21.986 45.488-7.221 46.96C249.4 492.77 354.205 498.523 466.357 513.69c87.43 17.659 187.309 8.57 192.193 28.753 27.213 37.51-413.063-46.472-423.784-37.55-97.177-6.603-106.239-30.429-103.318 3.749 2.677 25.288-2.902 40.895 19.319 44.716 169.388 28.865 346.653 55.414 522.85 62.842-5.781-136.242-33.012-274.635-21.793-413.509-96.382-7.175-200.383-13.029-296.613-33.984-178.095 141.862-69.545 144.148-211.494 91.492-2.557 35.128-6.776 69.142-7.378 103.32zm62.584 903.028c186.215 16.293 384.755 11.466 566.521 43.932-160.525-.445-326.464-40.608-488.167 3.508-115.838 9.678-70.175 2.213-83.502 140.333 142.074 37.313 312.446 26.52 466.291 46.88 28.02-1.772 70.614 20.508 73.866-1.31 25.368-96.712 39.808-189.553 36.045-291.986 10.492-58.333-34.027-28.21-67.367-31.553-89.713 6.101-176.777 11.156-266.478 15.834-277.352 17.53-232.01-12.701-237.21 74.361zm476.653-614.771c-175.032-7.089-352.133-25.117-529.049-46.727 44.762 222.552 15.311 166.038 129.142 187.698 142.132 19.333 284.502 37.085 430.149 51.123-10.747-61.281-18.782-127.511-30.243-192.094zM597.304 995.53c-135.917-51.442-272.699-112.156-413.041-160.292 41.202 91.524 31.231 130.849 20.231 209.607 176.192-5.45 355.402-7.747 534.223-12.019l-21.629-122.659c-19.811 14.858-120.23 99.73-117.409 78.337l-2.375 7.026zm-393.107 175.901c182.771-26.369 369.686-28.431 556.038-38.773-16.037-34.62-4.889-92.757-30.753-84.681-100.821 1.896-191.005 3.848-290.368 5.104-291.046 8.499-213.937-34.414-234.918 118.35zM545.33 62.833C226.586-.889 231.282-31.884 28.075 194.774c63.126 18.769 136.628 61.366 195.44 74.938C302.428 165.951 413.967 83.257 545.33 62.833zm172.339 1535.323c-174.137-21.803-351.736-46.384-529.614-66.072 16.643 170.166-56.257 110.05 186.301 117.71 429.93.795 325.911 15.501 343.314-51.638zM261.255 802.26c-38.251-5.809-79.328-19.576-115.966 8.475 150.776 49.128 298.747 108.747 448.317 166.732 28.232-1.192 55.698-36.701 83.719-50.16 30.74-24.265 44.056-18.2 33.586-59.121-27.93-61.585-158.793 77.217-174.922 49.657-20.444-19.927 94.633-52.539 102.145-67.746-30.73-1.944-64.864-8.692-98.7-8.588-24.197 10.891-48.395 22.832-72.347 36.1-9.628 4.823-26.898 22.048-30.025-5.49 21.371-14.668 49.622-20.914 73.619-34.789-47.21-1.985-88.116-22.548-114.288-6.024-16.096 6.883-72.628 54.335-63.039 16.253 16.952-6.664 34.404-14.542 52.302-27.042-47.137-5.692-99.621-27.091-143.726 7.091-6.382 7.747-11.809-4.339-13.644-13.3 9.006-1.57 22.084-6.402 32.969-12.049zm-74.815 701.266c175.778 24.931 355.325 45.274 534.456 66.528-3.056-11.766 17.581-47.944 1.422-50.939-41.199-4.605-77.124-8.701-121.279-10.385-139.409-10.086-274.37-19.892-416.108-18.277l1.51 13.074zm575.836-361.133c-153.851 13.386-591.791 16.5-558.38 49.893 96.291-7.06 196.467-13.713 293.448-19.182 70.538-12.264 297.74 5.383 264.932-30.711zM187.7 1522.188c1142.452 129.225 105.217.749-2.358-13.004l2.358 13.004zm486.927-900.102c-113.447-5.193-225.466-15.286-337.099-29.935 62.122 11.057 367.588 76.387 337.099 29.935zM160.66 1318.119c79.366-14.595 278.51-38.408 117.497-34.431-86.91-5.498-76.898-14.215-117.497 34.431zM654.177 188.208c-100.998-15.127-278.167-46.866-293.204-23.487 95.557 9.296 194.058 24.621 293.204 23.487z"/><path d="M230.839 1677.753c-34.622 0-57.877-2.03-62.594-7.763-.854-1.039-1.132-2.196-.824-3.442 4.963-63.308 3.866-105.854 3.139-134.009-.739-28.641-1.11-43.017 5.79-49.772 6.67-6.53 19.775-5.918 45.885-4.691 17.618.827 41.109 1.931 72.419 1.284-11.705-.793-22.351-1.456-32-2.058-52.817-3.292-76.923-4.795-85.663-16-7.047-9.036-4.252-24.072.821-51.369 3.722-20.025 8.812-47.413 11.962-83.79-33.055 2.612-48.188 1.448-50.566-3.874-2.076-4.644 5.018-11.398 14.835-20.747 15.204-14.478 36.027-34.306 29.723-55.658l-.023-.08.003-.083c3.357-77.107 10.216-121.521 14.313-148.056 5.496-35.585 6.07-39.305-12.704-47.867l-.293-.134v-.323c.056-16.858 1.267-34.589 2.549-53.362 4.167-60.995 8.472-124.069-25.457-168.744-4.652-3.264-10.398-4.794-15.956-6.273-10.727-2.856-20.858-5.553-22.516-19.844l-.062-.533.536-.024c11.627-.524 21.715-4.584 32.396-8.883 4.739-1.908 9.635-3.878 14.679-5.512-16.411-49.408-24.074-102.849-31.485-154.535-1.679-11.708-3.415-23.815-5.229-35.724l-.092-.606.612.032c48.337 2.487 98.384 8.2 146.784 13.724 58.294 6.654 118.528 13.529 177.976 15.145-61.538-16.063-149.054-23.181-219.681-28.926-66.339-5.396-118.738-9.658-123.55-19.23-.622-1.236-.513-2.542.323-3.881l.155-.249.293.014c21.119 1.029 42.343 3.223 64.813 5.546 22.561 2.332 45.849 4.739 69.404 5.917-13.709-4.202-33.829-8.162-55.024-12.333-36.35-7.153-73.937-14.55-80.31-23.848l-.081-.2c-9.031-53.646-1.521-112.962 5.743-170.326 5.452-43.06 10.603-83.736 8.624-119.955-12.272-4.778-26.459-9.277-41.473-14.039C43.566 228.255-3.451 213.346.198 189.184l.02-.13.082-.104C68.997 101.562 149.532 32.347 215.73 3.8l.109-.033c59.305-10.731 119.159 3.739 177.043 17.734 25.215 6.097 51.288 12.401 77.117 16.601 22.36 6.827 46.245 10.858 71.532 15.125 48.203 8.135 98.003 16.542 137.265 45.56.882-.272 1.726-.248 2.506.091 1.364.593 2.345 2.02 2.922 4.083l.277.217-.24-.081c.966 3.616.723 9.124-.839 15.518-21.298 125.062-7.555 244.097 6.994 370.121.698 6.045 1.397 12.104 2.095 18.177-1.369 170.144 32.479 337.697 65.212 499.734 11.112 55.005 22.602 111.883 32.656 168.426 11.358 139.278-6.902 219.632-24.562 297.34-10.228 45.011-19.889 87.524-23.853 140.181l-.023.119c-2.317 7.053-1.692 14.993-1.088 22.673 1.089 13.837 2.117 26.907-16.264 28.969-31.704-2.059-62.044-.873-94.166.381-20.042.782-40.75 1.609-61.838 1.539-54.599-.291-122.66 2.994-188.477 6.163-57.27 2.757-110.423 5.314-149.27 5.315zm-31.547-199.462c-11.285 0-18.139 1.172-22.243 5.19-6.589 6.451-6.222 20.681-5.49 49.031.727 28.175 1.826 70.754-3.155 134.194-.244 1.016-.039 1.855.613 2.647 9.689 11.775 107.495 7.067 211.043 2.084 65.83-3.17 133.906-6.453 188.529-6.164 21.038.061 41.763-.756 61.795-1.538 32.147-1.256 62.512-2.442 94.182-.378 17.331-1.951 16.385-13.974 15.29-27.895-.61-7.757-1.241-15.777 1.116-23.006 3.972-52.703 13.638-95.235 23.871-140.267 17.643-77.635 35.885-157.913 24.546-296.991-10.046-56.484-21.535-113.356-32.645-168.356C724 844.755 690.141 677.15 691.515 506.963l-2.091-18.116c-14.558-126.097-28.309-245.201-6.979-370.438 1.75-7.172 1.687-12.58.625-15.715l-1.322-.443a483.099 483.099 0 0 0-4.51-1.487c-1.033.828-2.117 2.085-3.2 3.734-15.643 27.303-15.653 44.94-15.658 55.478-.003 5.655-.005 9.39-2.471 11.527-4.332 3.753-15.632 2.137-49.174-2.661-37.809-5.408-101.089-14.46-211.589-24.262l-1.435-.127 1.205-.79c85.253-55.827 162.473-82.694 282.16-44.004.222-.155.441-.294.661-.416-39.001-28.602-88.476-36.952-136.372-45.035-25.32-4.273-49.236-8.309-71.592-15.14-25.801-4.191-51.893-10.5-77.125-16.601C334.883 8.5 275.153-5.943 216.074 4.735c-66.015 28.49-146.343 97.54-214.907 184.729-3.331 23.243 43.184 37.991 88.169 52.257 15.152 4.805 29.463 9.343 41.834 14.177l.299.117.018.321c2.032 36.39-3.139 77.225-8.613 120.458-7.249 57.253-14.745 116.452-5.767 169.924 6.326 8.92 43.582 16.252 79.616 23.343 23.153 4.556 45.021 8.859 58.721 13.516l3.318 1.128-3.501-.155c-24.861-1.1-49.442-3.641-73.214-6.099-22.349-2.31-43.463-4.493-64.457-5.527-.513.941-.555 1.811-.132 2.653 4.56 9.071 56.711 13.313 122.738 18.683 72.241 5.876 162.147 13.189 223.94 30.046l3.945 1.076-4.088-.094c-60.861-1.397-122.59-8.443-182.287-15.257-48.18-5.5-97.992-11.185-146.109-13.688 1.782 11.717 3.488 23.614 5.138 35.126 7.429 51.81 15.111 105.383 31.604 154.84l.161.48-.483.154c-5.179 1.652-10.218 3.681-15.091 5.642-10.597 4.265-20.616 8.298-32.184 8.928 1.771 13.153 11.461 15.733 21.714 18.462 5.668 1.509 11.529 3.069 16.338 6.467l.109.106c34.21 44.978 29.887 108.271 25.706 169.479-1.273 18.635-2.476 36.246-2.544 52.975 19.161 8.789 18.437 13.482 12.983 48.795-4.093 26.506-10.943 70.864-14.299 147.864 6.402 21.907-14.644 41.947-30.016 56.584-8.8 8.379-16.399 15.616-14.612 19.615 2.162 4.836 17.634 5.835 50.163 3.238l.588-.047-.05.588c-3.151 36.72-8.281 64.322-12.026 84.475-5.02 27.011-7.785 41.89-1.015 50.571 8.463 10.851 32.428 12.344 84.937 15.617 12.449.775 26.559 1.655 42.461 2.782l-.019.999c-36.654 1.163-63.424-.093-82.972-1.011-9.156-.43-16.695-.783-22.896-.783zM396.67 143.715c109.64 9.755 172.55 18.754 210.205 24.141 32.303 4.621 44.389 6.35 48.378 2.895 2.12-1.838 2.122-5.392 2.125-10.771.006-10.637.016-28.441 15.806-56 .978-1.489 1.973-2.684 2.955-3.566-118.381-38.083-195.095-11.723-279.469 43.303zm283.213-44.118c.78.587 1.559 1.185 2.331 1.789l.476.373c-.48-.998-1.09-1.662-1.786-1.965a2.43 2.43 0 0 0-1.021-.197zm-1.589.462.955.313-.629-.471c-.107.047-.216.1-.326.158zm-467.62 1554.522c-8.691 0-13.904-1.058-17.085-4.14-4.972-4.817-4.589-14.588-3.893-32.324.715-18.223 1.796-45.761-2.138-85.984l-.06-.613.613.067c120.786 13.369 242.889 29.182 360.972 44.474 55.434 7.179 112.755 14.602 168.649 21.6l.565.07-.143.552c-3.416 13.18-2.098 23.349-1.136 30.774.878 6.772 1.512 11.666-1.653 15.23-7.808 8.792-37.77 8.477-149.258 7.311-46.444-.486-110.051-1.152-191.751-1.304-66.913-2.111-109.21.889-137.199 2.877-11.259.799-19.875 1.41-26.482 1.41zm-22.061-121.933c3.871 39.96 2.795 67.351 2.082 85.509-.685 17.448-1.062 27.06 3.589 31.566 5.278 5.112 17.037 4.279 42.801 2.449 28.009-1.987 70.336-4.993 137.287-2.879 81.689.151 145.299.817 191.745 1.304 108.308 1.134 140.996 1.475 148.5-6.975 2.862-3.224 2.252-7.928 1.409-14.438-.959-7.402-2.268-17.503 1.02-30.603-55.718-6.978-112.842-14.375-168.091-21.53-117.876-15.265-239.766-31.05-360.341-44.403zm529.198 47.138c-2.916 0-9.685-.47-25.486-1.933-19.345-1.792-49.451-4.857-89.479-9.111-88.097-9.363-227.79-24.859-415.199-46.058l-.37-.042-2.546-14.041.677.087c12.27 1.568 37.076 4.686 68.481 8.631 76.27 9.583 191.529 24.063 289.251 36.695 53.816 6.956 95.857 12.521 124.954 16.539 52.136 7.2 52.055 7.879 51.961 8.665-.037.306-.069.567-2.244.567zm-529.683-58.054c326.511 36.932 504.015 56.102 528.373 57.065-32.031-6.372-331.43-43.988-462.737-60.486-30.839-3.874-55.314-6.949-67.806-8.545zm533.438 48.904-.727-.087c-28.659-3.399-57.328-6.776-85.991-10.153-147.89-17.419-300.814-35.432-448.476-56.375l-.382-.055-1.618-14.009.555-.006c141.274-1.605 274.083 8 414.697 18.174l1.453.104c43.12 1.646 78.008 5.547 118.404 10.064l2.895.323c2.349.435 4.082 1.551 5.184 3.325 3.456 5.561.315 16.678-2.722 27.429-2.356 8.34-4.582 16.218-3.456 20.556l.184.709zm-534.671-67.551c147.533 20.918 300.313 38.913 448.07 56.317 28.432 3.35 56.869 6.699 85.297 10.071-.82-4.686 1.336-12.317 3.613-20.374 2.979-10.543 6.059-21.443 2.835-26.629-.961-1.547-2.427-2.484-4.481-2.864l-2.859-.319c-40.377-4.515-75.248-8.415-118.349-10.059l-1.47-.106c-140.413-10.159-273.025-19.766-414.059-18.177l1.402 12.14zm532.673 6.933c-7.09 0-16.023-1.904-25.277-3.876-11.75-2.504-23.9-5.094-34.19-4.443-60.442-7.989-124.312-11.23-186.078-14.365-95.374-4.84-193.994-9.845-280.372-32.53l-.412-.107.041-.424c3.772-39.097 2.826-66.188 2.134-85.97q-1.674-47.906 73.042-54.084l8.783-.729c110.148-30.059 223.637-20.892 333.39-12.026 49.002 3.958 99.611 8.046 148.904 8.482-114.105-19.841-236.225-25.365-354.4-30.712-68.168-3.084-138.657-6.274-206.251-12.188l-.484-.042.029-.485c.74-12.392.454-22.444.223-30.521-.5-17.51-.75-26.298 10.023-31.063 10.556-4.668 31.823-5.273 74.192-6.479 35.436-1.008 83.966-2.39 153.24-6.768 98.473-5.136 183.146-10.167 266.476-15.833 9.526.948 19.765-.791 29.668-2.472 14.187-2.409 27.586-4.684 34.602 2.4 5.356 5.409 6.544 15.929 3.631 32.159 3.441 93.794-7.682 183.875-36.063 292.077-.49 3.304-1.952 5.844-4.334 7.496-2.603 1.806-6.222 2.505-10.518 2.505zm-56.045-9.419c9.56 0 20.428 2.316 30.977 4.564 14.642 3.121 28.473 6.067 35.016 1.528 2.177-1.51 3.461-3.759 3.925-6.875 28.371-108.176 39.483-198.183 36.04-291.894l-.002-.054.009-.053c2.863-15.917 1.768-26.165-3.348-31.332-6.649-6.715-19.8-4.482-33.724-2.118-9.968 1.692-20.278 3.441-29.852 2.482-83.251 5.668-167.93 10.7-266.402 15.835-69.286 4.379-117.826 5.761-153.269 6.77-42.238 1.202-63.439 1.806-73.815 6.394-10.159 4.493-9.915 13.057-9.428 30.119.228 7.991.511 17.912-.196 30.124 67.426 5.886 137.729 9.067 205.725 12.144 120.217 5.439 244.526 11.064 360.356 31.753l-.089.992c-51.193-.142-103.913-4.401-154.897-8.519-109.667-8.859-223.067-18.021-333.136 12.01l-8.874.745q-73.765 6.1-72.125 53.053c.689 19.737 1.633 46.742-2.098 85.676 86.18 22.567 184.585 27.562 279.757 32.391 61.786 3.136 125.676 6.378 186.061 14.369 1.108-.07 2.24-.104 3.389-.104zM159.391 1318.86l4.318-5.18q30.975-37.188 80.496-33.056c9.138.763 20.511 1.711 33.985 2.564 61.205-1.515 61.452 1.281 61.572 2.624.36 4.038-33.202 9.675-104.524 20.701-26.867 4.153-54.648 8.448-74.487 12.096l-1.361.25zm55.92-39.028c-22.11 0-27.853 6.897-50.833 34.489l-2.548 3.057c19.75-3.597 46.89-7.792 73.157-11.853 25.454-3.935 51.774-8.004 71.248-11.51 27.935-5.028 32.311-7.246 32.433-8.12-.392-1.181-8.786-2.988-60.596-1.708-13.529-.854-24.907-1.804-34.049-2.566-12.251-1.022-21.442-1.789-28.812-1.789zm-11.603-87.032-.162-.161c-1.794-1.793-2.36-3.585-1.682-5.326 3.527-9.058 41.989-16.135 121.042-22.274 68.259-5.301 154.966-8.978 238.818-12.533 78.793-3.341 153.216-6.497 200.511-10.611l.247-.021.167.183c3.082 3.391 4.042 6.498 2.851 9.232-6.549 15.05-80 15.941-151.033 16.803-47.198.572-91.778 1.113-117.034 5.504-91.504 5.164-190.231 11.617-293.497 19.188l-.229.017zm558.366-49.888c-47.329 4.106-121.642 7.257-200.307 10.593-164.743 6.986-351.467 14.903-358.971 34.172-.509 1.307-.084 2.647 1.299 4.093 103.189-7.564 201.84-14.012 293.225-19.166 25.278-4.398 69.897-4.939 117.136-5.513 70.715-.858 143.837-1.745 150.128-16.202 1.013-2.328.192-4.939-2.509-7.978zm-558.459 29.109.09-.658c4.382-31.907 4.481-55.282 4.553-72.35.085-20.153.132-31.254 6.829-37.828 9.015-8.85 29.484-8.557 78.932-7.851 33.802.483 80.095 1.144 145.084-.753 76.473-.966 147.222-2.339 222.125-3.793 22.323-.433 44.968-.873 68.176-1.309 4.003-1.235 7.265-.982 9.969.773 7.259 4.714 9.014 19.75 11.045 37.161 1.818 15.576 3.878 33.231 10.273 47.035l.31.668-.736.041c-47.195 2.62-95.196 4.742-141.615 6.794-136.633 6.041-277.918 12.288-414.379 31.975l-.657.095zm59.326-118.004c-27.322 0-40.562 1.411-47.154 7.882-6.399 6.282-6.445 17.234-6.529 37.119-.072 16.978-.17 40.189-4.472 71.824 136.309-19.621 277.38-25.857 413.821-31.89 46.176-2.042 93.92-4.152 140.873-6.753-6.222-13.844-8.256-31.269-10.054-46.67-2.003-17.16-3.732-31.98-10.597-36.438-2.454-1.594-5.462-1.801-9.195-.637l-.14.023c-23.233.437-45.901.877-68.247 1.311-74.905 1.454-145.656 2.827-222.124 3.793-65.003 1.899-111.309 1.237-145.12.754-11.983-.171-22.256-.318-31.063-.318zm-59.021-8.654.082-.587a3941.97 3941.97 0 0 1 2.386-16.745c9.69-67.295 15.54-107.915-22.579-192.588l-.474-1.053 1.092.375c85.769 29.418 171.252 63.955 253.921 97.354 52.089 21.045 105.945 42.803 158.651 62.76l2.208-6.535.969.226c-.178 1.349.073 2.195.767 2.586 8.241 4.638 66.264-41.849 97.436-66.826 8.21-6.579 14.696-11.776 18.412-14.563l.651-.488 21.872 124.033-.581.014c-68.26 1.631-137.652 2.995-204.759 4.314-108.418 2.131-220.527 4.335-329.461 7.705l-.592.018zm-18.726-209.277c37.715 84.221 31.86 124.893 22.184 192.088-.75 5.209-1.524 10.583-2.304 16.153 108.752-3.359 220.658-5.559 328.879-7.687 66.914-1.315 136.105-2.676 204.173-4.3l-21.387-121.282c-3.786 2.875-9.993 7.848-17.736 14.052-40.922 32.79-85.031 67.305-96.777 67.307-.714 0-1.308-.127-1.775-.39a2.409 2.409 0 0 1-1.044-1.153l-1.794 5.307-.485-.183c-52.87-20.011-106.902-41.84-159.156-62.952-82.309-33.254-167.4-67.632-252.78-96.96zM593.526 977.97l-.097-.038c-24.388-9.455-49.128-19.107-73.054-28.441C397.93 901.72 271.316 852.323 145.138 811.21l-.904-.295.754-.578c31.186-23.875 65.435-17.65 98.556-11.63 5.86 1.065 11.92 2.167 17.79 3.058l1.519.23-1.364.708c-10.947 5.679-23.667 10.357-32.604 12.006 1.426 6.585 4.542 13.88 8.187 14.786 1.464.363 2.971-.378 4.476-2.205l.08-.077c34.843-27.005 74.709-19.531 113.264-12.301 10.205 1.913 20.758 3.892 30.829 5.108l1.299.157-1.073.749c-18.654 13.028-36.824 20.965-52.165 27.004-1.664 6.748-1.268 11.055 1.178 12.803 6.618 4.728 27.683-8.972 43.066-18.976 7.562-4.918 14.092-9.165 18.175-10.912 16.669-10.531 39.338-6.088 65.588-.943 15.554 3.049 31.638 6.201 48.918 6.928l1.717.072-1.488.86c-10.949 6.331-22.877 11.116-34.412 15.744-14.078 5.648-27.381 10.985-38.925 18.854.907 7.633 3.031 12.297 6.314 13.864 4.783 2.283 11.435-1.956 17.304-5.694 2.032-1.295 3.953-2.519 5.651-3.37 22.597-12.518 46.95-24.67 72.366-36.109l.204-.044c20.58-.083 41.268 2.404 61.259 4.792 13.081 1.562 25.437 3.037 37.474 3.798l.749.047-.333.673c-3.01 6.094-21.869 14.479-43.706 24.189-27.534 12.243-58.742 26.119-60.721 37.174-.377 2.106.336 4.004 2.182 5.803l.083.105c.971 1.659 2.375 2.689 4.293 3.149 10.171 2.438 32.038-11.582 57.362-27.82 34.351-22.026 73.285-46.992 97.079-39.958 7.204 2.129 12.659 7.182 16.212 15.017 8.129 31.741 1.811 35.805-15.076 46.667-5.103 3.283-11.454 7.368-18.655 13.053l-.093.058c-10.926 5.248-21.974 14.028-32.658 22.519-16.677 13.253-33.921 26.958-51.257 27.69l-.104.004zM146.357 810.555c125.907 41.063 252.215 90.342 374.381 138.004 23.893 9.322 48.6 18.96 72.954 28.403 16.977-.77 34.056-14.343 50.573-27.47 10.711-8.512 21.787-17.314 32.797-22.613 7.221-5.697 13.58-9.787 18.691-13.074 16.904-10.874 22.598-14.536 14.677-45.496-3.399-7.476-8.643-12.345-15.556-14.389-23.361-6.906-62.086 17.93-96.255 39.84-25.517 16.362-47.551 30.488-58.135 27.951-2.144-.515-3.788-1.712-4.889-3.559-2.036-2.007-2.85-4.243-2.42-6.647 2.072-11.578 33.537-25.569 61.299-37.912 19.973-8.881 38.879-17.288 42.82-23.05-11.809-.777-23.916-2.223-36.717-3.751-19.927-2.379-40.539-4.814-61.031-4.785-25.355 11.416-49.65 23.54-72.213 36.039-1.671.837-3.57 2.047-5.58 3.328-6.087 3.878-12.984 8.272-18.271 5.753-3.71-1.771-5.971-6.662-6.912-14.952l-.034-.299.248-.17c11.692-8.026 25.135-13.419 39.367-19.128 10.978-4.404 22.313-8.952 32.789-14.83-16.747-.867-32.973-4.047-47.345-6.864-26.04-5.103-48.529-9.511-64.932.845-4.075 1.749-10.572 5.975-18.094 10.867-16.493 10.727-37.02 24.078-44.192 18.952-2.884-2.061-3.376-6.676-1.505-14.11l.063-.249.239-.094c15.042-5.913 32.835-13.647 51.124-26.242-9.707-1.229-19.809-3.123-29.592-4.958-38.318-7.184-77.944-14.614-112.423 12.075-1.76 2.117-3.595 2.956-5.452 2.496-4.777-1.188-7.925-10.652-9.031-16.057l-.104-.504.507-.088c8.503-1.482 20.701-5.875 31.453-11.298-5.402-.848-10.929-1.853-16.29-2.827-32.636-5.932-66.376-12.062-97.008 10.864zm560.071 33.875-.654-.063c-127.159-12.256-263.848-28.501-430.168-51.125-22.619-4.303-39.223-5.495-52.564-6.452q-43.226-3.101-61.387-100.487c-4.026-21.589-9.037-48.457-15.614-81.155l-.136-.679.687.084c214.298 26.174 377.45 40.584 529.008 46.723l.402.016.07.396c5.912 33.316 10.961 67.394 15.843 100.35 4.729 31.923 9.197 62.076 14.4 91.745zM147.157 605.629c6.511 32.397 11.481 59.049 15.48 80.49q18.021 96.627 60.476 99.673c13.367.959 30.003 2.153 52.654 6.462 165.997 22.579 302.489 38.806 429.45 51.054-5.157-29.473-9.594-59.426-14.291-91.124-4.862-32.818-9.889-66.75-15.768-99.926-151.311-6.142-314.206-20.529-528-46.63zm494.131 33.386c-63.457 0-195.472-25.537-267.387-39.448-15.742-3.045-28.176-5.45-36.457-6.924l.152-.988c112.626 14.779 226.029 24.849 337.057 29.931l.255.012.14.213c2.502 3.813 2.885 7.069 1.136 9.678-3.572 5.33-16.288 7.526-34.896 7.526zm-286.223-44.099c5.633 1.079 12 2.31 19.026 3.669 46.759 9.045 117.423 22.715 179.436 31.431 74.251 10.437 115.239 10.745 121.827.916 1.494-2.228 1.166-4.964-1.003-8.359-105.189-4.822-212.517-14.121-319.285-27.657zm319.078 21.806-.543-.023c-179.951-7.586-357.669-34.69-522.914-62.849-17.769-3.055-18.174-13.786-18.786-30.029-.17-4.51-.363-9.621-.946-15.127-.802-9.389-.715-14.586 1.987-16.967 3.271-2.883 9.987-1.439 23.364 1.434 15.976 3.431 40.104 8.614 78.329 11.221 4.986-2.87 52.903 4.048 136.397 16.417 117.577 17.418 278.601 41.274 287.864 26 .674-1.112.43-2.441-.746-4.063l-.081-.176c-2.658-10.987-36.231-13.136-78.736-15.856-33.302-2.132-74.748-4.785-113.069-12.524-56.072-7.582-111.136-12.89-164.387-18.023-52.97-5.106-107.744-10.386-162.896-17.874-3.401-.339-6.108-3.268-7.812-8.468-3.67-11.206-1.7-31.383 5.749-38.083 2.713-2.44 5.975-2.928 9.439-1.413 64.728-4.666 128.912-5.085 190.99-5.492 82.621-.541 168.054-1.1 253.374-11.887 30.919-3.751 38.127-5.557 39.411-6.356-6.231-2.987-109.626 1.068-192.946 4.336-66.457 2.606-129.228 5.074-147.406 4.399-50.328-1.458-96.106.953-144.571 3.508l-4.674.246c-2.776 1.54-4.551.401-5.555-.837-5.888-7.258-2.23-40.062 3.68-46.68 1.454-1.628 2.75-1.417 3.614-.911 170.361 17.077 328.683 26.925 483.974 30.103 20.144-3.886 22.167-6.238 22.101-7.07-.153-1.939-9.456-4.792-52.904-7.362-33.066-1.956-78.747-3.462-131.641-5.207-101.145-3.335-227.023-7.487-327.508-17.094l-.461-.044.008-.462c.406-23.03 2.408-45.476 4.527-69.24.992-11.128 2.018-22.636 2.853-34.107l.048-.664.624.231c24.184 8.971 41.071 16.335 53.401 21.712q32.438 14.146 49.698-7.775c14.316-18.182 40.964-52.025 107.91-105.351l.186-.148.232.05c85.926 18.711 177.187 25.315 265.444 31.702 10.441.756 20.814 1.506 31.1 2.272l.502.037-.041.501c-7.227 89.453 1.624 179.894 10.183 267.358 4.697 48 9.555 97.635 11.611 146.09l.023.543zM138.392 491.166c-2.176 0-3.747.393-4.79 1.312-2.382 2.099-2.425 7.076-1.652 16.122.586 5.529.779 10.659.95 15.184.616 16.316.987 26.164 17.956 29.082 165.04 28.124 342.539 55.196 522.243 62.813-2.068-48.255-6.905-97.683-11.583-145.491-8.547-87.341-17.385-177.658-10.225-267.034-10.122-.753-20.326-1.491-30.597-2.234-88.211-6.383-179.426-12.985-265.353-31.672-66.72 53.169-93.283 86.906-107.562 105.039-17.572 22.317-18.049 22.391-50.883 8.073-12.213-5.326-28.899-12.603-52.725-21.459-.827 11.26-1.833 22.542-2.806 33.459-2.103 23.586-4.09 45.874-4.514 68.706 100.377 9.573 226.008 13.715 326.985 17.045 121.516 4.007 184.952 6.427 185.509 13.49.134 1.704-2.354 4.169-22.961 8.14l-.052.01h-.053c-155.374-3.18-313.764-13.032-484.219-30.121l-.119-.012-.101-.064c-.502-.321-1.301-.6-2.435.669-5.587 6.255-9.177 38.57-3.65 45.384 1.14 1.405 2.574 1.581 4.386.54l.104-.06 4.911-.259c48.485-2.556 94.283-4.97 144.656-3.508 18.148.669 80.898-1.793 147.333-4.399 46.548-1.826 94.68-3.714 131.465-4.693 62.443-1.66 62.582.104 62.676 1.272.08.996.2 2.501-40.444 7.433-85.377 10.795-170.84 11.354-253.49 11.895-62.1.407-126.314.827-191.049 5.498l-.126.009-.115-.052c-3.164-1.422-6.016-1.021-8.477 1.193-7.193 6.468-9.049 26.094-5.467 37.028 1.095 3.344 3.195 7.409 6.978 7.786 55.15 7.487 109.915 12.766 162.875 17.872 53.261 5.134 108.335 10.443 164.458 18.033 38.287 7.732 79.695 10.382 112.967 12.512 44.471 2.847 76.636 4.905 79.62 16.522 1.369 1.923 1.616 3.635.734 5.089-2.258 3.723-12.548 5.304-28.573 5.305-52.151.002-165.119-16.734-260.293-30.834-70.892-10.502-132.114-19.568-135.794-16.511l-.154.128-.2-.013c-38.395-2.609-62.614-7.811-78.641-11.253-8.082-1.736-13.843-2.973-17.703-2.973zm85.328-220.895-.315-.073c-31.774-7.333-68.576-23.452-104.165-39.04-30.611-13.408-62.265-27.272-91.306-35.907l-.757-.225.527-.588c90.83-101.312 139.731-151.084 195.541-169.73C278.58 6.221 341 19.442 454.316 43.445c26.866 5.691 57.317 12.141 91.113 18.897l2.76.552-2.782.433c-120.16 18.683-234.335 92.085-321.494 206.688l-.195.257zM28.974 194.52c28.893 8.667 60.292 22.419 90.666 35.723 35.43 15.519 72.062 31.563 103.674 38.908C309.939 155.362 423.185 82.17 542.502 62.776c-32.713-6.559-62.249-12.815-88.394-18.353C340.965 20.457 278.64 7.255 223.562 25.656 168.087 44.19 119.345 93.738 28.974 194.519zm614.771-5.754c-70.302 0-140.658-7.92-208.813-15.592-24.346-2.74-49.52-5.574-74.007-7.957l-.815-.079.443-.689c13.157-20.457 143.722-.069 248.633 16.314 16.078 2.511 31.265 4.882 45.066 6.949l-.068.995c-3.476.04-6.962.059-10.438.059zm-281.851-24.459c24.22 2.365 49.091 5.165 73.15 7.873 69.444 7.817 141.221 15.867 212.795 15.577-12.088-1.833-25.125-3.87-38.808-6.006-97.943-15.295-231.656-36.175-247.137-17.444z"/><path d="M84.188 171.84c34.247 12.133 170.407 34.953 146.702 62.328-138.321-38.45-165.362-29.636-146.702-62.328z"/><path d="m231.061 234.733-.305-.084c-40.087-11.143-71.141-18.389-93.816-23.68-37.105-8.658-54.041-12.61-57.724-21.052-1.823-4.176-.508-9.485 4.538-18.325l.207-.363.394.14c8.481 3.004 23.229 6.666 40.307 10.906 43.737 10.86 103.638 25.732 109.069 42.87 1.001 3.16.172 6.306-2.463 9.349zM84.417 172.45c-4.7 8.311-5.94 13.271-4.284 17.066 3.483 7.982 20.265 11.898 57.035 20.479 22.625 5.279 53.589 12.504 93.548 23.604 2.264-2.719 2.938-5.388 2.063-8.152-5.262-16.604-64.849-31.399-108.357-42.202-16.842-4.182-31.421-7.802-40.004-10.795zm107.549-81.128c-25.051-50.946 161.285 20.535 139.577 38.918-42.808-9.103-91.464-29.032-139.577-38.918z"/><path d="m331.678 130.78-.24-.051c-20.432-4.345-41.871-11.052-64.568-18.153-24.511-7.668-49.855-15.597-75.005-20.765l-.24-.049-.108-.22c-3.744-7.614-3.078-13.007 1.98-16.031 11.662-6.975 44.792.821 71.905 10.442 32.199 11.424 59.546 26.2 66.505 35.931 3.203 4.48 1.746 7.224-.041 8.737zM192.307 90.882c25.12 5.178 50.405 13.089 74.861 20.74 22.583 7.065 43.919 13.74 64.232 18.077 1.977-1.812 1.875-4.18-.308-7.232-15.165-21.208-116.234-58.563-137.083-46.096-4.486 2.682-5.058 7.563-1.703 14.512zM419.47 79.96c-45.517-19.347-109.464-24.089-149.405-43.602C252.703-5.387 450.026 65.253 419.47 79.96z"/><path d="m419.483 80.509-.208-.089c-21.883-9.301-48.263-15.272-73.775-21.047-28.233-6.39-54.9-12.426-75.654-22.566l-.17-.083-.072-.174c-2.333-5.607-.965-9.708 3.953-11.859 13.5-5.903 50.568 3.006 80.757 13.313 29.665 10.129 63.702 25.625 68.333 35.71.904 1.97 1.125 4.73-2.959 6.696l-.204.098zM270.455 35.992c20.626 10.038 47.169 16.046 75.266 22.406 25.472 5.765 51.81 11.727 73.734 21.012 2.568-1.303 3.314-3.031 2.282-5.278-8.181-17.82-122.762-59.467-147.78-48.525-4.403 1.926-5.55 5.324-3.502 10.385zM130.246 147.544c.392-15.046-.688-28.125 20.164-18.381 34.146 12.344 131.562 19.033 125.009 50.037-41.631-8.489-96.147-23.155-145.173-31.656z"/><path d="m275.807 179.789-.487-.1c-16.378-3.34-34.646-7.611-53.988-12.133-30.205-7.062-61.438-14.364-91.171-19.52l-.426-.074.011-.432c.024-.903.042-1.799.06-2.683.171-8.422.318-15.696 4.728-18.439 3.264-2.033 8.377-1.302 16.088 2.301 9.814 3.546 25.166 6.678 41.419 9.994 33.681 6.872 71.856 14.661 81.75 29.742 2.214 3.375 2.927 7.028 2.118 10.858l-.103.486zm-145.049-32.665c29.633 5.157 60.728 12.426 90.802 19.458 19.139 4.475 37.228 8.704 53.465 12.026.594-3.382-.101-6.614-2.069-9.615-9.666-14.733-47.625-22.478-81.115-29.311-16.29-3.324-31.676-6.463-41.6-10.051-7.316-3.417-12.267-4.188-15.178-2.375-3.949 2.457-4.091 9.479-4.256 17.61-.015.745-.03 1.499-.049 2.257z"/></svg></g><g transform="translate(1431.0 73.5) rotate(0.0 613.5 1426.5) scale(1.5006751203475404 1.5000118297462914)"><svg width="817.632" height="1901.985" viewBox="0 0 817.632 1901.985"><g fill="#fff"><path d="M74.037 858.605c200.643 126.642 259.046-2.214 314.112 15.898 158.529 16.587 327.961 90.542 397.119 213.893 145.82 230.409-454.938 384.489-506.559 249.957-26.167-36.382-22.82-70.93 15.443-92.797 79.411-26.457 164.74-13.419 242.397-47.584 94.418-43.336 2.738-112.481-56.961-127.546-179.716-47.154-412.684 49.579-405.551-211.822z"/><path d="M301.648 1385.699c56.313 27.058 54.657-10.57 55.631 49.836 2.088 101.255 14.936 225.526-24.438 293.504-97.284 69.807-116.311-99.427-133.63-159.396 43.066-80.759 31.499-136.127 102.437-183.945zm46.845-166.396c-35.385 1.389-65.671 21.228-103.348 24.282-37.571-2.28-99.51 15.826-104.211 2.25-16.252-84.874-32.785-167.346-49.144-252.656 48.219 76.49 152.072 78.198 235.478 75.902 9.261-2.367 4.739 8.35 6.15 18.268 1.536 45.188 10.591 84.947 15.075 131.955zm66.223-1051.875c8.889 32.661-21.221 56.715-24.848 87.847.538 14.994 9.344 33.849-8.229 40.76-10.73 4.567-25.213 5.314-30.81 19.901-32.792 93.133-71.055-16.262-92.843 46.562-22.288-15.883-88.797-42.466-83.789-54.561 37.895-81.377 41.534-63.961 11.251-85.926-7.306-9.686-3.017-24.318 6.274-33.346 7.927-6.538 16.375-5.123 26.296 3.118 45.157 47.275 165.038 4.709 196.697-24.354zM162.46 1358.103l-6.105-30.854c26.244 5.124 50.512 31.068 6.105 30.854zm340.503-910.536c13.659 1.681 20.605 15.244 25.505 30.073-12.368-1.189-15.783-18.572-25.505-30.073z"/><path d="m484.659 557.231 50.606-66.648-10.729-10.262-26.981-38.718-89.509 99.191h-16.457l-34.52 117.256 74.171 47.114 39.184-40.584 26.631-83.046-7.182-19.929z"/></g><path d="M379.406 557.105c4.772-10.116 9.689-27.145 24.58-19.278 24.563-20.55 48.594-66.339 76.831-91.845 28.15-22.281 57.79 17.022 58.116 45.765-13.789 28.899-38.819 48.839-57.419 75.687-3.701 6.737-3.642 29.528-7.841 41.168-2.055 5.696-2.724 9.657-10.014 5.948 4.47-10.346 10.599-23.56 10.143-36.822-20.695 18.626-23.259 65.82-59.539 39.922-28.926-19.327-7.136-49.29-14.154-76.787-10.446 7.046-9.951 17.967-14.462 30.471-40.15 149.233 3.115 45.573 46.716 124.818 68.784-49.532 47.794-149.433 61.034-140.029 10.922 23.536-5.106 81.612-11.892 100.117-10.643 23.407-32.338 34.829-47.736 55.158-8.002 53.603-34.148 100.021-60.295 147.704 429.711 48.25 574.185 347.685 313.68 470.95-97.548 53.243-213.61 75.97-324.515 70.922 40.04 281.09-22.729 295.031-2.324 320.983 41.285 75.249 243.542 80.662 211.349 165.309-23.287 16.878-57.582 8.14-86.332 13.343-52.879.348-143.997 6.042-154.138-16.872-6.06-9.831-3.411-51.878-23.244-28.452-9.554 11.146-.856 36.422-18.441 37.41-18.058-1.451-43.538 3.56-54.949-12.55-9.326-45.181 1.428-89.177-4.023-135.635-1.313-13.689 4.048-19.157-4.03-31.931-21.673-43.046-28.546-87.313-40.629-133.551-11.766 6.386-36.719 26.201-47.816 10.44-31.832-333.069 23.955-171.476 3.962-258.342-2.709-15.532-16.423-6.354-13.238-33.376 2.127-64.128-17.79-122.917-26.443-186.994C80.976 952.46 53 923.664 60.287 850.764c-6.86-22.974-29.138-41.736-35.572-66.489C-2.334 707.1-9.668 622.082 17.97 543.078 44.583 433.905 127.207 383.03 163.301 298.74c17.463-29.476 11.56-24.56-4.855-44.941-21.759-23.413-20.622-56.396-29.959-81.1C26.315 161.628 15.249 33.503 105.995 4.374c37.179-11.099 80.587 2.049 101.652 34.317 9.86 21.244 11.883 10.765 31.745 6.462 102.965-27.304 210.551 61.488 180.359 163.366-4.359 17.789-18.468 29.048-19.654 48.424 10.053 64.287-16.84 29.242-39.402 59.934-32.944 92.862-65.372 7.233-88.9 37.065-28.006 36.274 12.708 61.311 35.307 86.157 32.809 34.675 60.14 70.228 72.305 117.006zm-305.369 301.5c-7.84 282.817 273.865 150.696 429.602 221.11 45.158 17.546 99.425 58.552 57.099 104.703-80.033 52.253-180.612 31.123-268.411 62.09-41.948 24.48-35.048 61.268-12.635 93.281 49.507 81.652 182.335 42.943 247.445 31.177 104.177-18.332 204.522-69.44 269.495-154.515 24.433-43.641 6.498-95.594-16.231-136.725-85.163-136.026-266.657-192.355-397.74-205.601-13.859.13-22.37-4.699-34.288 6.323-90.62 56.814-197.74 34.307-274.335-21.843zm227.611 527.094c-59.154 41.551-64.508 86.616-81.279 141.162-3.818 18.716-20.974 28.4-20.469 47.244 19.779 66.858 37.289 220.902 132.297 155.334 6.194-4.249 5.768-10.852 9.689-19.177 30.374-80.993 14.193-164.419 17.157-249.023-5.899-89.823 9.493-47.134-57.394-75.54zm46.845-166.396c-3.609-38.381-11.464-77.666-14.37-118.124-3.565-8.887 4.819-31.15-5.556-32.134-60.055 4.336-120.803-2.792-179.165-22.936-25.87-9.057-39.561-32.672-57.612-52.93 13.205 68.833 27.286 139.777 40.685 208.78 5.698 12.346 2.686 55.9 16.839 48.81 38.622-5.782 75.475-4.301 114.828-8.643 26.671-10.406 53.555-19.6 84.351-22.823zm66.223-1051.875c-41.414 31.688-97.484 48.732-150.706 43.504-51.289-.82-49.304-43.124-75.471-19.213-15.19 22.258-4.455 33.557 17.522 43.037-4.578 25.415-21.954 52.866-34.233 77.813 28.402 15.616 56.109 34.484 86.158 49.93 11.942-45.127 42.735-.56 67.834-7.628 22.853-14.087 18.959-55.142 52.242-57.331 5.942-2.109 12.101-6.371 14.004-11.612 3.735-9.895-3.1-21.169-2.169-32.319 3.657-30.466 33.572-51.398 24.819-86.179zm-50.78 1049.079c48.405-8.916 250.614-18.544 187.934-87.516-52.819-59.879-136.531-53.958-210.306-60.032l22.372 147.548zm152.008-739.75c-6.532-8.211-10.516-26.223-22.131-30.222-15.9 13.427-27.425 30.786-41.903 47.196-13.945 18.597-29.37 31.936-41.713 51.929 3.435 19.958-8.229 40.094 2.507 59.319 31.49-43.081 63.324-89.808 103.24-128.223zm-87.589 142.84c32.379-43.655 72.508-85.221 103.515-131.333-.344-12.109-16.675-3.704-22.113 5.089-33.038 37.075-61.619 72.462-92.549 111.841-6.318 5.543 6.339 11.494 11.148 14.403zM162.46 1358.101c44.193.535 20.901-25.379-6.105-30.854l6.105 30.854zm340.503-910.534c8.281 8.37 11.709 28.259 25.505 30.073-4.425-12.189-9.42-27.597-25.505-30.073z"/><path d="M421.535 1901.991c-43.019 0-84.04-2.781-90.797-18.051-1.82-2.944-2.855-8.732-3.951-14.861-1.587-8.877-3.386-18.938-7.948-20.166-2.616-.704-6.148 1.55-10.506 6.697-3.78 4.41-4.642 11.174-5.475 17.716-1.262 9.904-2.453 19.26-13.32 19.87-4.273-.339-8.826-.323-13.647-.31-15.398.051-32.848.102-41.738-12.45l-.081-.188c-5.165-25.022-4.166-50.194-3.199-74.537.789-19.857 1.604-40.39-.83-61.141-.459-4.777-.111-8.598.195-11.969.587-6.44 1.05-11.527-4.152-19.753-16.54-32.846-24.362-65.881-32.644-100.855-2.488-10.508-5.06-21.368-7.884-32.214-1.803 1.006-3.918 2.311-6.146 3.684-12.825 7.908-32.207 19.857-41.758 6.295l-.076-.108-.013-.132c-9.027-94.466-11.985-159.944-8.789-194.616 2.701-29.308 9.229-31.277 13.548-32.58 3.965-1.195 5.954-1.795-.786-31.082-1.063-6.092-3.765-8.203-6.625-10.439-4.207-3.288-8.558-6.688-6.621-23.108 1.382-41.723-6.44-80.448-14.722-121.446-4.281-21.198-8.709-43.118-11.721-65.421-9.701-71.869-20.552-116.165-29.271-151.758-10.092-41.199-16.762-68.432-12.797-108.252-3.271-10.884-9.904-20.646-16.925-30.979-7.496-11.034-15.248-22.444-18.625-35.433-29.861-85.192-32.193-168.711-6.733-241.488 15.533-63.73 50.063-107.518 83.456-149.864 24.104-30.565 46.87-59.436 61.887-94.506 13.995-23.631 12.987-24.72 3.346-35.142-2.232-2.413-5.011-5.416-8.131-9.29-14.663-15.777-18.926-35.638-23.049-54.846-1.995-9.295-3.881-18.081-6.879-26.104-24.084-2.671-44.737-12.128-59.744-27.36-13.563-13.767-22.118-32.029-24.09-51.423-1.92-18.878 2.487-37.938 12.408-53.67 10.884-17.258 27.876-29.988 49.139-36.813 38.648-11.539 81.635 2.98 102.224 34.52 6.964 14.992 9.565 13.941 18.193 10.464 3.334-1.344 7.483-3.016 13.027-4.217 26.702-7.081 55.078-6.631 82.035 1.308 25.705 7.57 48.908 21.47 67.102 40.196 33.166 34.139 44.759 78.786 31.807 122.493-1.903 7.772-5.707 14.39-9.385 20.79-4.922 8.563-9.57 16.652-10.245 27.469 6.266 40.12-1.926 41.998-14.323 44.843-7.411 1.702-16.632 3.819-25.136 15.351-8.89 25.035-18.527 39.268-29.464 43.516-10.365 4.028-20.187-1.199-29.683-6.252-11.304-6.014-21.065-11.21-29.807-.126-22.626 29.306-.128 50.919 21.629 71.821 4.899 4.706 9.526 9.151 13.655 13.69 29.757 31.448 59.056 67.254 72.063 115.869.386-.854.774-1.745 1.173-2.655 3.054-6.983 6.515-14.898 12.783-17.09 3.074-1.074 6.58-.623 10.429 1.343 12.134-10.238 24.049-26.498 36.659-43.705 12.65-17.262 25.73-35.112 39.903-47.914 9.253-7.326 19.431-8.66 29.457-3.878 16.037 7.647 29.269 30.082 29.494 50.009v.116l-.049.105c-8.367 17.536-20.58 31.468-33.511 46.217-4.79 5.464-9.677 11.038-14.378 16.849.66-.11 1.396.121 2.192.686l.107.077.056.121c10.438 22.493-3.784 78.434-11.875 100.5-6.457 14.202-16.702 23.801-27.549 33.964-6.926 6.488-14.086 13.197-20.182 21.221-7.791 52.004-32.152 96.393-57.942 143.388l-2.031 3.703c123.767 13.992 231.648 49.837 312.006 103.678 72.93 48.864 118.794 109.985 129.142 172.104 13.291 79.787-33.381 151.238-128.051 196.033-85.355 46.589-188.923 71.656-294.488 71.658a664.76 664.76 0 0 1-29.661-.661c26.981 189.843 7.13 257.305-2.415 289.747-4.487 15.25-6.535 22.211-.096 30.4 17.995 32.784 66.338 52.165 113.09 70.907 59.982 24.047 116.638 46.76 98.333 94.889l-.053.14-.121.088c-15.21 11.023-35.38 11.215-54.886 11.399-10.601.101-21.562.205-31.65 2.031-7.782.059-16.264.222-25.244.395-12.469.24-25.648.494-38.643.494zm-103.685-54.207a4.8 4.8 0 0 1 1.248.163c5.176 1.392 6.954 11.338 8.673 20.956 1.079 6.032 2.098 11.73 3.85 14.572 8.562 19.334 77.905 17.997 128.538 17.022 8.982-.174 17.467-.337 25.171-.388 10.087-1.833 21.091-1.938 31.732-2.039 19.297-.183 39.249-.371 54.188-11.122 17.792-47.116-38.369-69.63-97.824-93.465-46.915-18.809-95.428-38.257-113.549-71.286-6.713-8.526-4.619-15.643-.032-31.233 9.535-32.406 29.375-99.84 2.299-289.92l-.085-.597.603.027c115.724 5.269 230.88-19.898 324.254-70.862 94.261-44.603 140.73-115.665 127.518-194.978-10.303-61.845-56.014-122.729-128.712-171.438-80.388-53.86-188.38-89.684-312.302-103.599l-.741-.083 2.749-5.01c25.766-46.952 50.104-91.3 57.849-143.181l.019-.126.077-.102c6.163-8.136 13.386-14.904 20.371-21.449 10.773-10.093 20.948-19.626 27.309-33.614 8.017-21.869 22.149-77.284 11.95-99.576-.972-.651-1.438-.435-1.596-.363-2.087.96-2.823 9.034-3.756 19.256-2.783 30.524-7.965 87.341-54.994 121.208l-.458.33-.272-.494c-17.873-32.485-35.758-34.019-47.592-35.033-5.741-.492-10.276-.881-12.848-4.551-5.116-7.3-1.792-28.102 13.679-85.605 1.258-3.493 2.114-6.804 2.942-10.005 2.159-8.348 4.023-15.557 11.724-20.75l.588-.397.176.688c2.591 10.152 1.295 20.606.04 30.715-2.149 17.328-4.179 33.694 13.907 45.779 8.669 6.189 15.833 8.514 21.911 7.109 9.295-2.143 15.059-12.751 21.161-23.983 4.565-8.403 9.286-17.092 15.854-23.003l.798-.718.037 1.072c.433 12.594-5.008 25.119-9.379 35.182l-.616 1.42c2.328 1.129 3.962 1.439 5.128.973 1.586-.637 2.348-2.812 3.313-5.566.146-.417.297-.847.455-1.288 2.063-5.717 3.076-14.048 4.057-22.105.979-8.049 1.903-15.652 3.816-19.134 7.397-10.682 15.861-20.336 24.046-29.673 12.857-14.666 25.004-28.521 33.311-45.884-.271-19.227-13.494-41.644-28.924-49.001-9.66-4.607-19.475-3.312-28.381 3.739-14.072 12.712-27.122 30.52-39.742 47.742-12.735 17.377-24.764 33.792-37.079 44.095l-.257.215-.297-.156c-3.764-1.989-7.012-2.459-9.932-1.439-5.857 2.047-9.226 9.75-12.197 16.547-.603 1.377-1.186 2.71-1.766 3.941l-.589 1.248-.348-1.335c-12.765-49.085-42.236-85.139-72.184-116.788-4.112-4.521-8.728-8.956-13.614-13.65-21.047-20.219-44.902-43.137-21.725-73.157 9.26-11.743 19.851-6.108 31.064-.141 9.297 4.946 18.912 10.063 28.851 6.202 10.659-4.14 20.115-18.201 28.908-42.988l.069-.129c8.735-11.883 18.176-14.05 25.761-15.792 12.277-2.818 19.688-4.52 13.55-43.769l-.009-.054.004-.054c.678-11.078 5.61-19.66 10.38-27.959 3.644-6.34 7.411-12.896 9.287-20.553 12.854-43.373 1.348-87.662-31.56-121.534-37.787-38.896-95.951-55.081-148.186-41.229-5.482 1.188-9.588 2.843-12.887 4.173-8.813 3.552-12.111 4.883-19.439-10.908C186.876 7.788 144.36-6.558 106.139 4.853 59.354 19.871 41.865 60.589 45.289 94.28c3.268 32.138 27.032 71.831 83.253 77.924l.306.033.108.287c3.088 8.171 5.003 17.091 7.029 26.535 4.095 19.076 8.328 38.8 22.827 54.402 3.121 3.874 5.887 6.862 8.108 9.264 9.887 10.685 11.156 12.058-3.188 36.272-15.04 35.133-37.847 64.054-61.992 94.673-33.327 42.262-67.788 85.963-83.283 149.529-25.398 72.607-23.066 155.897 6.731 240.913 3.344 12.862 11.047 24.199 18.496 35.163 7.086 10.429 13.778 20.279 17.084 31.349l.027.095-.01.098c-3.968 39.705 2.688 66.879 12.765 108.013 8.725 35.616 19.582 79.941 29.289 151.862 3.008 22.271 7.433 44.174 11.711 65.357 8.293 41.058 16.126 79.838 14.737 121.72-1.874 15.903 2.067 18.983 6.24 22.245 2.884 2.254 5.865 4.584 6.989 11.029 6.945 30.172 4.799 30.819.096 32.237-8.095 2.441-24.94 7.508-4.064 226.01 9.037 12.621 27.867 1.012 40.339-6.678 2.475-1.526 4.813-2.967 6.754-4.021l.561-.304.161.617c2.892 11.064 5.516 22.144 8.053 32.858 8.268 34.916 16.076 67.896 32.539 100.594 5.359 8.471 4.859 13.969 4.279 20.336-.303 3.327-.646 7.098-.197 11.771 2.442 20.818 1.626 41.392.835 61.286-.963 24.249-1.958 49.324 3.158 74.192 8.609 12.044 25.734 11.988 40.857 11.943 4.843-.015 9.417-.029 13.663.313 9.969-.565 11.109-9.52 12.316-19 .852-6.688 1.732-13.603 5.705-18.237 4.075-4.813 7.455-7.178 10.279-7.178zM399.798 541.69c-6.895 4.954-8.673 11.831-10.724 19.76-.833 3.224-1.695 6.557-2.957 10.054-15.366 57.123-18.727 77.721-13.813 84.731 2.304 3.288 6.419 3.641 12.114 4.129 11.986 1.027 30.068 2.575 48.109 35.052 46.233-33.639 51.366-89.891 54.126-120.156.725-7.944 1.255-13.762 2.327-17.075-2.43 3.1-4.796 6.271-7.056 9.534-1.793 3.27-2.707 10.779-3.674 18.729-.986 8.112-2.007 16.501-4.107 22.323-.158.438-.308.865-.453 1.279-1.048 2.994-1.876 5.358-3.884 6.164-1.518.609-3.542.222-6.374-1.219l-.419-.213.991-2.288c4.202-9.674 9.401-21.642 9.32-33.641-6.026 5.774-10.5 14.009-14.833 21.984-6.213 11.435-12.081 22.236-21.815 24.48-6.371 1.468-13.801-.905-22.704-7.261-18.586-12.419-16.52-29.083-14.331-46.725 1.213-9.782 2.467-19.89.156-29.643zM290.114 1745.813c-5.284 0-10.327-.911-15.118-2.738-37.55-14.321-53.573-80.361-66.448-133.426-3.151-12.989-6.128-25.258-9.129-35.402l-.021-.128c-.281-10.543 4.786-18.121 10.152-26.144 4.244-6.346 8.633-12.908 10.327-21.213 2.311-7.523 4.406-14.862 6.434-21.959 12.804-44.836 23.861-83.558 75.049-119.512l.227-.16.256.109c20.824 8.844 33.842 10.806 41.619 11.978 13.54 2.041 13.556 2.526 14.383 27.917.279 8.589.663 20.353 1.695 36.072-.864 24.749-.086 49.7.667 73.83 1.893 60.67 3.681 117.976-17.855 175.401-1.336 2.843-2.176 5.506-2.917 7.856-1.465 4.646-2.729 8.657-6.956 11.557-15.397 10.626-29.584 15.962-42.364 15.962zm-89.718-171.787c3.002 10.155 5.976 22.413 9.124 35.388 12.819 52.836 28.773 118.593 65.832 132.727 16.048 6.121 35.08 1.71 56.559-13.112 3.943-2.705 5.103-6.381 6.569-11.034.751-2.38 1.602-5.078 2.951-7.944 21.45-57.203 19.665-114.413 17.775-174.981-.753-24.146-1.532-49.114-.666-73.846-1.032-15.686-1.416-27.459-1.696-36.055q-.815-25.044-13.532-26.961c-7.792-1.174-20.813-3.137-41.604-11.938-50.706 35.707-61.702 74.221-74.435 118.809-2.028 7.102-4.126 14.446-6.428 21.931-1.722 8.451-6.166 15.096-10.464 21.522-5.264 7.87-10.235 15.304-9.985 25.496zm191.713-183.059c-3.537 0-7.06-.069-10.568-.213-49.368-2.034-82.824-18.62-102.278-50.706-14.7-20.996-20.532-40.989-16.848-57.791 3.149-14.361 13.128-26.534 29.659-36.181 36.522-12.892 75.683-16.837 113.555-20.653 53.109-5.352 108.025-10.884 154.782-41.389 12.682-13.847 17.417-28.132 14.077-42.46-6.387-27.397-40.88-49.677-71.031-61.393-50.961-23.041-115.988-24.377-178.875-25.67-40.27-.828-81.909-1.684-118.204-8.447-40.644-7.574-70.639-21.999-91.697-44.1-29.502-30.961-42.96-77.859-41.145-143.373l.026-.954.77.564c42.145 30.896 99.047 54.953 159.103 54.956 37.938.002 77.128-9.596 114.671-33.133 9.005-8.341 16.066-7.709 25.007-6.91 2.987.267 6.063.548 9.542.511 75.323 7.608 152.121 27.78 216.301 56.802 81.973 37.068 143.162 87.209 181.868 149.033 30.685 55.524 36.145 101.688 16.243 137.234-31.385 41.104-71.826 75.562-120.239 102.479-45.327 25.201-95.661 42.792-149.604 52.285-7.345 1.327-15.637 3.014-24.416 4.801-32.491 6.613-72.264 14.707-110.697 14.707zM74.512 859.571c-1.652 64.735 11.729 111.095 40.894 141.703 46.59 48.894 125.575 50.518 209.198 52.237 62.987 1.294 128.119 2.633 179.242 25.748 30.364 11.797 65.143 34.311 71.617 62.087 3.423 14.685-1.407 29.29-14.356 43.41l-.095.081c-46.973 30.667-102.034 36.215-155.282 41.581-37.813 3.81-76.912 7.75-113.236 20.562-16.194 9.461-26.014 21.415-29.101 35.492-3.623 16.521 2.154 36.243 16.709 57.031 19.284 31.805 52.474 48.234 101.481 50.253 41.51 1.717 85.596-7.264 121.025-14.475 8.785-1.788 17.082-3.477 24.439-4.806 112.734-19.838 208.332-74.646 269.186-154.327 19.683-35.165 14.222-81.002-16.271-136.18-102.447-163.631-330.039-198.543-397.353-205.345-3.47.038-6.573-.243-9.586-.513-8.695-.777-15.561-1.391-24.313 6.705-42.424 26.606-91.786 37.504-142.824 31.569-45.842-5.33-91.248-23.586-131.376-52.814zm89.313 499.041c-.449 0-.905-.003-1.371-.008l-.406-.005-6.329-31.988.736.149c16.915 3.429 32.074 14.505 31.192 22.791-.443 4.164-4.978 9.061-23.822 9.061zm-.954-1.004c14.772.111 23.208-2.77 23.781-8.163.805-7.562-13.784-18.104-29.66-21.551zm-16.447-105.564a4.772 4.772 0 0 1-2.305-.583c-5.309-2.873-6.81-15.968-8.262-28.631-.969-8.45-1.884-16.431-3.836-20.661l-.037-.114a49808.745 49808.745 0 0 0-16.082-82.328c-8.165-41.678-16.608-84.776-24.604-126.453l-.341-1.78 1.205 1.354c4.123 4.626 8.064 9.484 11.876 14.183 13.21 16.283 25.688 31.663 45.527 38.607 56.968 19.663 117.185 27.369 178.965 22.91 6.907.648 6.217 9.597 5.549 18.25-.412 5.331-.838 10.844.507 14.196l.035.15c1.608 22.401 4.767 44.659 7.82 66.185 2.428 17.11 4.938 34.802 6.549 51.928l.046.493-.492.051c-29.267 3.063-54.835 11.327-84.222 22.792l-.127.031c-17.442 1.924-34.609 2.716-51.211 3.481-20.674.953-42.053 1.939-63.52 5.147-1.073.527-2.09.791-3.042.791zm-13.469-50.238c2.001 4.387 2.922 12.414 3.896 20.911 1.357 11.831 2.895 25.24 7.744 27.865 1.288.696 2.758.612 4.496-.259l.149-.047c21.544-3.225 42.975-4.213 63.699-5.169 16.564-.764 33.694-1.554 51.082-3.469 29.271-11.418 54.776-19.665 83.928-22.778-1.608-16.934-3.983-33.675-6.497-51.389-3.053-21.518-6.209-43.768-7.822-66.177-1.396-3.572-.965-9.164-.547-14.572.659-8.549 1.283-16.623-4.563-17.178-61.843 4.472-122.185-3.254-179.282-22.961-20.108-7.04-32.674-22.526-45.976-38.922-3.43-4.227-6.965-8.584-10.637-12.778 7.893 41.117 16.21 83.574 24.258 124.653a50588.005 50588.005 0 0 1 16.071 82.271zm230.564 15.289-22.544-148.683.63.052c11.555.951 23.6 1.622 35.247 2.27 64.263 3.578 130.713 7.277 175.393 57.929 10.664 11.734 14.277 22.524 10.734 32.064-12.227 32.916-107.465 44.579-164.368 51.547-14.282 1.749-26.617 3.259-34.584 4.727zm-21.366-147.583 22.2 146.413c8.007-1.443 20.137-2.929 34.137-4.643 56.677-6.941 151.537-18.557 163.552-50.903 3.402-9.161-.145-19.607-10.542-31.049-44.407-50.344-110.646-54.031-174.703-57.598-11.442-.637-23.268-1.295-34.644-2.221zm86.333-449.249-.39-.235c-.576-.349-1.267-.741-2.023-1.172-4.504-2.564-10.673-6.075-11.076-10.034-.146-1.432.487-2.778 1.88-4.001 27.406-34.905 57.633-72.663 92.507-111.798 3.831-6.208 13.374-12.581 18.988-11.076 1.756.472 3.874 1.95 3.998 6.306l.004.16-.089.133c-17.885 26.597-39.041 51.971-59.502 76.509-14.904 17.875-30.316 36.359-44.026 54.843zm98.125-137.533c-4.962 0-12.818 5.05-16.43 10.889-34.907 39.185-65.122 76.928-92.581 111.887-1.216 1.078-1.721 2.108-1.608 3.215.351 3.446 6.504 6.948 10.576 9.266.601.342 1.16.661 1.655.952 13.658-18.385 28.976-36.755 43.792-54.524 20.409-24.477 41.513-49.788 59.35-76.292-.119-2.909-1.214-4.661-3.253-5.209a5.776 5.776 0 0 0-1.501-.183zM412.647 605.907l-.38-.681c-6.484-11.611-4.876-23.729-3.319-35.449 1.047-7.89 2.13-16.049.756-24.029l-.031-.187.099-.161c7.354-11.913 15.611-21.256 24.353-31.149 5.771-6.53 11.737-13.283 17.387-20.817 4.796-5.438 9.294-11.009 13.644-16.396 9.075-11.24 17.647-21.856 28.337-30.883l.217-.183.269.092c7.899 2.72 12.361 11.771 16.298 19.757 2.004 4.065 3.896 7.904 6.062 10.626l.283.356-.328.315c-34.298 33.008-62.576 72.093-89.923 109.891a4478.7 4478.7 0 0 1-13.261 18.266l-.46.63zm-1.926-60.142c1.351 8.069.267 16.24-.783 24.143-1.571 11.845-3.059 23.045 2.827 34.142 4.251-5.82 8.509-11.705 12.792-17.625 27.286-37.714 55.501-76.71 89.716-109.713-2.113-2.774-3.953-6.506-5.896-10.447-3.806-7.72-8.113-16.458-15.461-19.16-10.515 8.925-19.002 19.438-27.984 30.562-4.356 5.396-8.861 10.974-13.646 16.398-5.649 7.536-11.629 14.304-17.413 20.849-8.673 9.815-16.866 19.088-24.151 30.852zm118.497-67.521-.816-.107c-9.162-1.205-13.771-9.952-18.229-18.412-2.408-4.572-4.684-8.891-7.566-11.805l-1.064-1.076 1.496.23c15.793 2.431 21.128 17.195 25.414 29.058l.766 2.113zm-24.881-29.916c2.509 2.935 4.562 6.832 6.721 10.93 4.198 7.969 8.536 16.2 16.65 17.754l-.196-.541c-4.061-11.236-9.082-25.131-23.175-28.143zM258.31 363.227l-.553-.284c-17.1-8.79-33.606-18.787-49.57-28.454-11.974-7.252-24.355-14.75-36.601-21.483l-.418-.23.211-.429c2.992-6.08 6.213-12.167 9.622-18.612 10.312-19.491 20.973-39.642 24.496-58.679-14.294-6.215-21.663-12.397-23.873-20.016-1.929-6.646.198-14.367 6.502-23.604l.076-.087c13.678-12.498 19.993-7.208 29.553.805 9.002 7.545 21.331 17.879 46.263 18.278 51.996 5.107 108.204-11.119 150.394-43.401l.604-.462.185.737c5.257 20.884-3.421 37.039-11.813 52.662-5.666 10.548-11.524 21.455-12.994 33.698-.392 4.699.641 9.507 1.64 14.157 1.38 6.427 2.684 12.499.501 18.28-2.1 5.785-9.019 10.03-14.305 11.906l-.134.028c-19.156 1.26-25.687 15.333-32.6 30.232-4.813 10.37-9.788 21.093-19.413 27.026l-.127.056c-9.632 2.711-19.897-1.955-29.825-6.468-9.643-4.384-18.747-8.523-25.964-5.103-5.163 2.447-8.989 8.612-11.697 18.846l-.159.601zm-85.822-50.867c12.126 6.683 24.371 14.099 36.218 21.273 15.777 9.555 32.085 19.432 48.958 28.137 2.781-10.179 6.733-16.362 12.074-18.894 7.639-3.619 16.948.614 26.807 5.096 9.74 4.428 19.811 9.007 29.073 6.435 9.33-5.784 14.23-16.345 18.971-26.559 6.725-14.491 13.677-29.476 33.372-30.805 5.072-1.814 11.66-5.848 13.636-11.288 2.081-5.513.807-11.444-.542-17.723-1.014-4.721-2.062-9.603-1.655-14.468 1.494-12.449 7.397-23.441 13.107-34.07 8.201-15.27 16.68-31.052 11.904-51.206-42.315 32.125-98.493 48.249-150.449 43.141-25.245-.402-37.732-10.868-46.849-18.509-9.469-7.937-15.189-12.732-28.193-.872-6.1 8.953-8.171 16.383-6.335 22.713 2.138 7.37 9.439 13.395 23.675 19.535l.364.157-.07.391c-3.478 19.304-14.25 39.667-24.668 59.358-3.325 6.287-6.472 12.233-9.397 18.158z"/><path d="M482.637 533.984c8.089-12.751 18.069-23.299 27.721-34.247 1.932 2.342 3.515 5.186 1.952 6.885-5.792 6.294-20.627 28.506-23.695 29.512-1.519.498-3.399.044-5.978-2.15z"/><path d="M487.474 536.815c-1.531 0-3.232-.81-5.161-2.45l-.331-.282.233-.367c6.89-10.86 15.275-20.271 23.385-29.372 1.464-1.643 2.928-3.285 4.384-4.937l.388-.44.373.453c2.743 3.327 3.412 5.935 1.934 7.541-2.361 2.566-6.189 7.733-10.241 13.203-7.071 9.546-11.843 15.848-13.665 16.446a4.152 4.152 0 0 1-1.298.206zm-4.179-2.934c2.051 1.661 3.739 2.242 5.165 1.778 1.656-.543 8.042-9.164 13.174-16.091 4.067-5.492 7.91-10.679 10.308-13.284 1.327-1.442-.277-4.069-1.602-5.77-1.327 1.503-2.66 3-3.994 4.495-7.989 8.967-16.249 18.236-23.051 28.872zm-3.01 11.534c-.633 2.413-3.25 7.949-6.52 8.722-1.285.304-6.386-2.605-6.475-3.962-.038-.585.384-1.385 1.691-2.53 3.132-3.602 7.257-12.121 11.305-2.23z"/><path d="M473.565 554.657c-1.256 0-3.633-1.266-5.017-2.289-1.698-1.256-1.743-1.936-1.758-2.16-.055-.845.536-1.778 1.86-2.938.453-.528.983-1.237 1.544-1.988 1.844-2.468 3.94-5.273 6.284-4.965 1.604.204 3 1.81 4.269 4.91l.063.155-.043.162c-.556 2.121-3.222 8.214-6.889 9.082-.095.022-.2.033-.314.033zm2.566-13.362c-1.708 0-3.524 2.431-5.136 4.586-.572.766-1.113 1.489-1.639 2.093-1.413 1.245-1.587 1.891-1.568 2.169.01.153.306.646 1.354 1.421 1.711 1.265 3.946 2.222 4.507 2.087 2.885-.682 5.393-5.659 6.108-8.202-1.085-2.598-2.23-3.991-3.404-4.141a1.825 1.825 0 0 0-.222-.014z"/><path d="M163.866 638.184c3.762 5.424 5.121 9.951 4.857 14.841-.388 7.2-.352 14.53-1.777 21.545-2.744 13.51 1.281 25.124 8.613 35.948 7.181 10.601 16.122 19.399 26.967 26.486 6.666 4.357 13.121 8.62 21.13 9.801 4.527.667 9.07 1.655 13.613 1.694 6.563.056 13.047-.768 19.094-3.89 16.823-8.684 31.025-20.19 41.63-36.148 5.673-8.537 12.241-16.502 18.697-24.488 8.536-10.559 19.8-17.801 31.381-24.482 5.847-3.373 12.362-4.235 19.064-2.962 2.37.45 4.751.945 5.32 4.504-1.373.204-2.544.376-3.715.551-4.785.717-9.333 1.708-13.055 5.363-2.133 2.095-5.113 3.321-7.687 4.976-8.118 5.223-13.542 12.917-19.009 20.606-5.44 7.652-10.794 15.391-16.672 22.7-5.466 6.797-11.293 13.359-17.466 19.517-8.821 8.801-18.587 16.759-29.661 22.351-11.975 6.048-25.023 6.965-38.263 3.578-9.98-2.553-18.434-7.681-26.443-13.956-22.451-17.586-35.261-40.71-39.885-68.598-.423-2.55-.369-5.238-.145-7.827.679-7.83 1.539-15.645 2.354-23.462.247-2.374.576-4.739 1.057-8.649z" fill="#fff"/></svg></g></svg>